<?xml version="1.0" encoding="UTF-8" standalone="no"?>
<!-- Created with Inkscape (http://www.inkscape.org/) -->

<svg
   xmlns:dc="http://purl.org/dc/elements/1.1/"
   xmlns:cc="http://creativecommons.org/ns#"
   xmlns:rdf="http://www.w3.org/1999/02/22-rdf-syntax-ns#"
   xmlns:svg="http://www.w3.org/2000/svg"
   xmlns="http://www.w3.org/2000/svg"
   xmlns:sodipodi="http://sodipodi.sourceforge.net/DTD/sodipodi-0.dtd"
   xmlns:inkscape="http://www.inkscape.org/namespaces/inkscape"
   width="694.18701"
   height="707.85028"
   id="svg6101"
   version="1.1"
   inkscape:version="0.48.5 r10040"
   sodipodi:docname="NervousNetIcon.svg"
   inkscape:export-filename="C:\Users\patrick\Documents\Nervous_Mosgap\documentation\graphic resources\Logo_Draft\V2\NervousNetIcon.png"
   inkscape:export-xdpi="449.96805"
   inkscape:export-ydpi="449.96805">
  <defs
     id="defs6103" />
  <sodipodi:namedview
     id="base"
     pagecolor="#ffffff"
     bordercolor="#666666"
     borderopacity="1.0"
     inkscape:pageopacity="0.0"
     inkscape:pageshadow="2"
     inkscape:zoom="0.49497475"
     inkscape:cx="852.94189"
     inkscape:cy="559.72988"
     inkscape:document-units="px"
     inkscape:current-layer="layer1"
     showgrid="false"
     fit-margin-top="0"
     fit-margin-left="0"
     fit-margin-right="0"
     fit-margin-bottom="0"
     inkscape:window-width="1858"
     inkscape:window-height="1057"
     inkscape:window-x="-8"
     inkscape:window-y="-8"
     inkscape:window-maximized="1" />
  <metadata
     id="metadata6106">
    <rdf:RDF>
      <cc:Work
         rdf:about="">
        <dc:format>image/svg+xml</dc:format>
        <dc:type
           rdf:resource="http://purl.org/dc/dcmitype/StillImage" />
        <dc:title></dc:title>
      </cc:Work>
    </rdf:RDF>
  </metadata>
  <g
     inkscape:label="Layer 1"
     inkscape:groupmode="layer"
     id="layer1"
     transform="translate(-7.0578253,-329.8656)">
    <path
       d="m 98.154834,580.08272 153.817526,0 c -3.5659,15.74869 -7.19128,34.04815 -10.75718,49.79709 69.89475,-42.88971 187.53069,-97.77031 234.86851,1.66985 27.47245,56.65567 -33.67658,269.73023 -56.23352,406.02504 -49.24403,0.3177 -98.48807,0 -147.7321,0 19.69761,-108.0192 53.59134,-208.47755 61.80559,-318.33888 4.62179,-61.81412 -98.36605,-17.69392 -114.54437,33.35886 -32.72346,94.04022 -42.57226,187.76273 -63.22298,284.98002 -48.92634,0 -100.172156,0 -149.0984847,0 C 38.82817,883.4885 73.373964,735.43869 98.154834,580.0817 z"
       id="path6"
       inkscape:connector-curvature="0"
       style="fill:#f15f18;display:inline"
       sodipodi:nodetypes="ccccccsccccc"
       inkscape:export-filename="C:\Users\patrick\Documents\Nervous_Mosgap\documentation\graphic resources\Logo_Draft\V2\path4070-95.png"
       inkscape:export-xdpi="1011.71"
       inkscape:export-ydpi="1011.71" />
    <path
       style="fill:#f15f18;fill-opacity:1;display:inline"
       inkscape:connector-curvature="0"
       d="m 466.23945,634.28572 c -12.56428,-37.02668 -43.40617,-58.41626 -81.49195,-46.59514 -1.95706,0.59728 -3.05834,0.99123 -1.82998,5.01183 l 20.55466,65.93134 59.04125,-18.14137 c 6.16421,-2.05618 4.40641,-3.94843 3.725,-6.20666 z"
       id="path3022"
       inkscape:export-filename="C:\Users\patrick\Documents\Nervous_Mosgap\documentation\graphic resources\Logo_Draft\V2\path4070-95.png"
       inkscape:export-xdpi="1011.71"
       inkscape:export-ydpi="1011.71" />
    <path
       style="fill:#f15f18;fill-opacity:1;display:inline"
       inkscape:connector-curvature="0"
       d="M 549.2091,616.13342 C 521.21664,525.57929 431.9928,474.20411 349.75259,501.54795 c -1.93926,0.63541 -2.9915,2.90382 -2.32813,5.04793 l 14.29386,47.42372 c 0.64303,2.13243 2.73021,3.34046 4.66872,2.70353 55.08265,-18.31142 114.87953,16.31217 133.24762,77.21058 0.62524,2.11971 2.73911,3.34631 4.66846,2.70352 l 42.93037,-14.26437 0.15251,-0.0763 c 1.95705,-0.65066 3.01538,-2.92922 2.36117,-5.04183 l -0.53883,-1.13355 z"
       id="path3024"
       inkscape:export-filename="C:\Users\patrick\Documents\Nervous_Mosgap\documentation\graphic resources\Logo_Draft\V2\path4070-95.png"
       inkscape:export-xdpi="1011.71"
       inkscape:export-ydpi="1011.71" />
    <path
       style="fill:#f15f18;fill-opacity:1;display:inline"
       inkscape:connector-curvature="0"
       d="m 624.1706,592.54585 -0.56166,-1.13357 C 581.94171,455.48705 448.20355,378.36999 324.9336,419.32096 c -1.9291,0.64048 -2.97727,2.90076 -2.32559,5.09012 l 14.71348,48.76062 c 0.6532,2.16292 2.74877,3.35215 4.67812,2.71013 95.45489,-31.72586 198.97996,28.30103 230.7986,133.75036 0.62778,2.10955 2.73936,3.34605 4.66388,2.71624 l 44.14042,-14.68425 0.1779,-0.0763 c 1.93418,-0.65065 3.02971,-2.93558 2.38158,-5.05657 z"
       id="path3026"
       inkscape:export-filename="C:\Users\patrick\Documents\Nervous_Mosgap\documentation\graphic resources\Logo_Draft\V2\path4070-95.png"
       inkscape:export-xdpi="1011.71"
       inkscape:export-ydpi="1011.71" />
    <path
       style="fill:#f15f18;fill-opacity:1;display:inline"
       inkscape:connector-curvature="0"
       d="m 701.06625,568.21129 -0.56166,-1.13357 C 645.71215,363.50605 489.13545,303.0171 300.32149,340.17797 c -1.93164,0.64304 -2.97726,2.90051 -2.32558,5.08961 l 14.00664,46.39005 c 0.6532,2.16292 2.74878,3.3519 4.67813,2.71013 162.87512,-48.38115 301.14275,51.15407 329.73378,191.18683 0.62773,2.10955 2.73905,3.34631 4.66388,2.71649 l 47.42011,-14.94146 0.1779,-0.0763 c 1.93418,-0.65066 3.02961,-2.93558 2.38158,-5.05657 z"
       id="path3026-6"
       sodipodi:nodetypes="cccccccccccc"
       inkscape:export-filename="C:\Users\patrick\Documents\Nervous_Mosgap\documentation\graphic resources\Logo_Draft\V2\path4070-95.png"
       inkscape:export-xdpi="1011.71"
       inkscape:export-ydpi="1011.71" />
  </g>
</svg>
