<?xml version="1.0" encoding="UTF-8" standalone="no"?>
<!-- Created with Inkscape (http://www.inkscape.org/) -->

<svg
   xmlns:dc="http://purl.org/dc/elements/1.1/"
   xmlns:cc="http://creativecommons.org/ns#"
   xmlns:rdf="http://www.w3.org/1999/02/22-rdf-syntax-ns#"
   xmlns:svg="http://www.w3.org/2000/svg"
   xmlns="http://www.w3.org/2000/svg"
   xmlns:sodipodi="http://sodipodi.sourceforge.net/DTD/sodipodi-0.dtd"
   xmlns:inkscape="http://www.inkscape.org/namespaces/inkscape"
   width="859.79602"
   height="657.2832"
   id="svg6101"
   version="1.1"
   inkscape:version="0.48.5 r10040"
   sodipodi:docname="NervousNetIcon2.svg"
   inkscape:export-filename="C:\Users\cpcrasher\Documents\Nervous_Mosgap\documentation\graphic resources\Logo_Draft\V2\NervousNetIcon2.png"
   inkscape:export-xdpi="449.96805"
   inkscape:export-ydpi="449.96805">
  <defs
     id="defs6103" />
  <sodipodi:namedview
     id="base"
     pagecolor="#ffffff"
     bordercolor="#666666"
     borderopacity="1.0"
     inkscape:pageopacity="0.0"
     inkscape:pageshadow="2"
     inkscape:zoom="0.49497475"
     inkscape:cx="196.35316"
     inkscape:cy="150.57978"
     inkscape:document-units="px"
     inkscape:current-layer="g3770"
     showgrid="false"
     fit-margin-top="0"
     fit-margin-left="0"
     fit-margin-right="0"
     fit-margin-bottom="0"
     inkscape:window-width="1474"
     inkscape:window-height="841"
     inkscape:window-x="-8"
     inkscape:window-y="-8"
     inkscape:window-maximized="1" />
  <metadata
     id="metadata6106">
    <rdf:RDF>
      <cc:Work
         rdf:about="">
        <dc:format>image/svg+xml</dc:format>
        <dc:type
           rdf:resource="http://purl.org/dc/dcmitype/StillImage" />
        <dc:title></dc:title>
      </cc:Work>
    </rdf:RDF>
  </metadata>
  <g
     inkscape:label="Layer 1"
     inkscape:groupmode="layer"
     id="layer1"
     transform="translate(158.55117,-329.8656)">
    <g
       id="g3770">
      <path
         style="fill:#f15f18;fill-opacity:1;stroke:none"
         d="M 371.8125 31.3125 C 370.95788 31.30638 370.1293 31.411274 369.40625 31.625 L 327.875 43.90625 C 323.63319 45.16513 321.3005 48.75786 322.46875 53.59375 C 339.63756 111.67709 340.07167 169.90084 326.625 223.78125 L 389.5 223.78125 C 401.78275 164.33325 399.92454 100.87688 381.21875 37.59375 C 379.99231 33.429119 375.51585 31.339018 371.8125 31.3125 z M 194.75 413.34375 C 165.04147 434.00512 131.39769 450.39323 94.5625 461.28125 L 111.8125 519.625 C 133.58168 513.19034 154.41441 505.1544 174.1875 495.65625 C 181.16173 468.21708 188.03331 440.79772 194.75 413.34375 z "
         transform="translate(-158.55117,329.8656)"
         id="path5048" />
      <path
         style="fill:#f15f18;fill-opacity:1;stroke:none"
         d="M 287.09375 55.9375 L 221.875 75.21875 C 258.17143 198.00929 188.29129 326.5477 65.5 362.84375 L 84.78125 428.09375 C 132.96352 413.85164 174.82747 388.60052 208.5 355.90625 C 218.66341 312.26039 228.19415 268.34557 236.71875 223.78125 L 287.78125 223.78125 C 303.08688 170.7582 303.91748 112.85364 287.09375 55.9375 z "
         transform="translate(-158.55117,329.8656)"
         id="path5050" />
      <path
         inkscape:connector-curvature="0"
         id="path5052"
         d="m 33.564601,413.89125 -62.93896,18.60463 c 21.0854892,71.33494 -19.752821,146.44819 -91.088071,167.53376 l 18.60455,62.93865 C 3.9966292,631.67968 64.854346,519.74604 33.56539,413.89164 z"
         style="fill:#f15f18;fill-opacity:1;stroke:none" />
      <path
         id="path5054"
         d="m -70.15694,444.64396 c 14.42925,48.81849 -13.446927,100.09096 -62.26544,114.52113 l -26.12879,-88.39234 z"
         style="fill:#f15f18;fill-opacity:1;stroke:none"
         inkscape:connector-curvature="0" />
    </g>
    <path
       d="m 98.154834,579.33693 153.817526,0 c -3.5659,13.13239 -7.19128,28.39179 -10.75718,41.52439 69.89475,-35.76452 187.53069,-81.5279 234.86851,1.39244 27.47245,47.24356 -33.67658,224.92041 -56.23352,338.5728 -49.24403,0.26493 -98.48807,0 -147.7321,0 19.69761,-90.07415 53.59134,-173.84353 61.80559,-265.45379 4.62179,-51.54505 -98.36605,-14.75446 -114.54437,27.81701 -32.72346,78.41748 -42.57226,156.57003 -63.22298,237.63678 -48.92634,0 -100.172156,0 -149.0984847,0 C 38.82817,832.33844 73.373964,708.88388 98.154834,579.33608 z"
       id="path6"
       inkscape:connector-curvature="0"
       style="fill:#f15f18;display:inline"
       sodipodi:nodetypes="ccccccsccccc"
       inkscape:export-filename="C:\Users\patrick\Documents\Nervous_Mosgap\documentation\graphic resources\Logo_Draft\V2\path4070-95.png"
       inkscape:export-xdpi="1011.71"
       inkscape:export-ydpi="1011.71" />
    <path
       style="fill:#f15f18;fill-opacity:1;display:inline"
       inkscape:connector-curvature="0"
       d="m 466.23945,634.28572 c -12.56428,-37.02668 -43.40617,-58.41626 -81.49195,-46.59514 -1.95706,0.59728 -3.05834,0.99123 -1.82998,5.01183 l 20.55466,65.93134 59.04125,-18.14137 c 6.16421,-2.05618 4.40641,-3.94843 3.725,-6.20666 z"
       id="path3022"
       inkscape:export-filename="C:\Users\patrick\Documents\Nervous_Mosgap\documentation\graphic resources\Logo_Draft\V2\path4070-95.png"
       inkscape:export-xdpi="1011.71"
       inkscape:export-ydpi="1011.71" />
    <path
       style="fill:#f15f18;fill-opacity:1;display:inline"
       inkscape:connector-curvature="0"
       d="M 549.2091,616.13342 C 521.21664,525.57929 431.9928,474.20411 349.75259,501.54795 c -1.93926,0.63541 -2.9915,2.90382 -2.32813,5.04793 l 14.29386,47.42372 c 0.64303,2.13243 2.73021,3.34046 4.66872,2.70353 55.08265,-18.31142 114.87953,16.31217 133.24762,77.21058 0.62524,2.11971 2.73911,3.34631 4.66846,2.70352 l 42.93037,-14.26437 0.15251,-0.0763 c 1.95705,-0.65066 3.01538,-2.92922 2.36117,-5.04183 l -0.53883,-1.13355 z"
       id="path3024"
       inkscape:export-filename="C:\Users\patrick\Documents\Nervous_Mosgap\documentation\graphic resources\Logo_Draft\V2\path4070-95.png"
       inkscape:export-xdpi="1011.71"
       inkscape:export-ydpi="1011.71" />
    <path
       style="fill:#f15f18;fill-opacity:1;display:inline"
       inkscape:connector-curvature="0"
       d="m 624.1706,592.54585 -0.56166,-1.13357 C 581.94171,455.48705 448.20355,378.36999 324.9336,419.32096 c -1.9291,0.64048 -2.97727,2.90076 -2.32559,5.09012 l 14.71348,48.76062 c 0.6532,2.16292 2.74877,3.35215 4.67812,2.71013 95.45489,-31.72586 198.97996,28.30103 230.7986,133.75036 0.62778,2.10955 2.73936,3.34605 4.66388,2.71624 l 44.14042,-14.68425 0.1779,-0.0763 c 1.93418,-0.65065 3.02971,-2.93558 2.38158,-5.05657 z"
       id="path3026"
       inkscape:export-filename="C:\Users\patrick\Documents\Nervous_Mosgap\documentation\graphic resources\Logo_Draft\V2\path4070-95.png"
       inkscape:export-xdpi="1011.71"
       inkscape:export-ydpi="1011.71" />
    <path
       style="fill:#f15f18;fill-opacity:1;display:inline"
       inkscape:connector-curvature="0"
       d="m 701.06625,568.21129 -0.56166,-1.13357 C 645.71215,363.50605 489.13545,303.0171 300.32149,340.17797 c -1.93164,0.64304 -2.97726,2.90051 -2.32558,5.08961 l 14.00664,46.39005 c 0.6532,2.16292 2.74878,3.3519 4.67813,2.71013 162.87512,-48.38115 301.14275,51.15407 329.73378,191.18683 0.62773,2.10955 2.73905,3.34631 4.66388,2.71649 l 47.42011,-14.94146 0.1779,-0.0763 c 1.93418,-0.65066 3.02961,-2.93558 2.38158,-5.05657 z"
       id="path3026-6"
       sodipodi:nodetypes="cccccccccccc"
       inkscape:export-filename="C:\Users\patrick\Documents\Nervous_Mosgap\documentation\graphic resources\Logo_Draft\V2\path4070-95.png"
       inkscape:export-xdpi="1011.71"
       inkscape:export-ydpi="1011.71" />
  </g>
</svg>
