<?xml version="1.0" encoding="UTF-8" standalone="no"?>
<!-- Created with Inkscape (http://www.inkscape.org/) -->

<svg
   xmlns:dc="http://purl.org/dc/elements/1.1/"
   xmlns:cc="http://creativecommons.org/ns#"
   xmlns:rdf="http://www.w3.org/1999/02/22-rdf-syntax-ns#"
   xmlns:svg="http://www.w3.org/2000/svg"
   xmlns="http://www.w3.org/2000/svg"
   xmlns:sodipodi="http://sodipodi.sourceforge.net/DTD/sodipodi-0.dtd"
   xmlns:inkscape="http://www.inkscape.org/namespaces/inkscape"
   width="1024"
   height="1024"
   id="svg6101"
   version="1.1"
   inkscape:version="0.48.5 r10040"
   sodipodi:docname="NervousNetIcon.svg"
   inkscape:export-filename="C:\Users\cpcrasher\Documents\Nervous_Mosgap\documentation\graphic resources\Logo_Draft\V2\NervousNetIcon.png"
   inkscape:export-xdpi="90"
   inkscape:export-ydpi="90">
  <defs
     id="defs6103" />
  <sodipodi:namedview
     id="base"
     pagecolor="#ffffff"
     bordercolor="#666666"
     borderopacity="1.0"
     inkscape:pageopacity="0.0"
     inkscape:pageshadow="2"
     inkscape:zoom="0.35355339"
     inkscape:cx="-212.12729"
     inkscape:cy="605.15138"
     inkscape:document-units="px"
     inkscape:current-layer="layer1"
     showgrid="false"
     fit-margin-top="0"
     fit-margin-left="0"
     fit-margin-right="0"
     fit-margin-bottom="0"
     inkscape:window-width="1474"
     inkscape:window-height="841"
     inkscape:window-x="-8"
     inkscape:window-y="-8"
     inkscape:window-maximized="1"
     inkscape:snap-bbox="true"
     inkscape:bbox-nodes="true"
     inkscape:bbox-paths="true"
     inkscape:snap-bbox-edge-midpoints="true"
     inkscape:snap-bbox-midpoints="true" />
  <metadata
     id="metadata6106">
    <rdf:RDF>
      <cc:Work
         rdf:about="">
        <dc:format>image/svg+xml</dc:format>
        <dc:type
           rdf:resource="http://purl.org/dc/dcmitype/StillImage" />
        <dc:title></dc:title>
      </cc:Work>
    </rdf:RDF>
  </metadata>
  <g
     inkscape:label="Layer 1"
     inkscape:groupmode="layer"
     id="layer1"
     transform="translate(-7.0578253,63.055665)">
    <path
       d="m 141.36737,398.30535 226.78362,0 c -5.25744,19.36198 -10.60259,41.85995 -15.86003,61.22224 103.05059,-52.73006 276.48926,-120.20214 346.28264,2.05297 40.5045,69.6544 -49.65168,331.61548 -82.90891,499.18094 -72.60382,0.39061 -145.20767,0 -217.8115,0 29.04152,-132.80247 79.01336,-256.30937 91.12419,-391.37662 6.81422,-75.99638 -145.02777,-21.7535 -168.88057,41.01252 -48.24642,115.61623 -62.76716,230.84186 -93.21389,350.3641 -72.13552,0 -147.690687,0 -219.8260655,0 C 53.897973,771.32271 104.8312,589.30524 141.36737,398.3041 z"
       id="path6"
       inkscape:connector-curvature="0"
       style="fill:#f15f18;display:inline"
       sodipodi:nodetypes="ccccccsccccc"
       inkscape:export-filename="C:\Users\patrick\Documents\Nervous_Mosgap\documentation\graphic resources\Logo_Draft\V2\path4070-95.png"
       inkscape:export-xdpi="1011.71"
       inkscape:export-ydpi="1011.71" />
    <path
       style="fill:#f15f18;fill-opacity:1;display:inline"
       inkscape:connector-curvature="0"
       d="m 684.05956,479.32009 c -18.52437,-54.59096 -63.99667,-86.12708 -120.14913,-68.6984 -2.88543,0.88061 -4.50912,1.46144 -2.69806,7.38929 l 30.30513,97.20707 87.04854,-26.74706 c 9.08832,-3.03157 6.49667,-5.82144 5.49202,-9.1509 z"
       id="path3022"
       inkscape:export-filename="C:\Users\patrick\Documents\Nervous_Mosgap\documentation\graphic resources\Logo_Draft\V2\path4070-95.png"
       inkscape:export-xdpi="1011.71"
       inkscape:export-ydpi="1011.71" />
    <path
       style="fill:#f15f18;fill-opacity:1;display:inline"
       inkscape:connector-curvature="0"
       d="M 806.38739,452.55691 C 765.11618,319.04679 633.5674,243.3009 512.31506,283.61572 c -2.85918,0.93681 -4.41057,4.28127 -3.43252,7.4426 l 21.07442,69.91996 c 0.94806,3.14398 4.02533,4.92506 6.88341,3.986 81.2121,-26.99778 169.3747,24.05014 196.45604,113.83683 0.92184,3.12523 4.03846,4.93369 6.88303,3.98598 l 63.29517,-21.03094 0.22486,-0.11249 c 2.88541,-0.95931 4.44578,-4.31874 3.48123,-7.4335 l -0.79443,-1.67128 z"
       id="path3024"
       inkscape:export-filename="C:\Users\patrick\Documents\Nervous_Mosgap\documentation\graphic resources\Logo_Draft\V2\path4070-95.png"
       inkscape:export-xdpi="1011.71"
       inkscape:export-ydpi="1011.71" />
    <path
       style="fill:#f15f18;fill-opacity:1;display:inline"
       inkscape:connector-curvature="0"
       d="m 916.90824,417.78015 -0.8281,-1.6713 C 854.64729,215.705 657.46803,102.00614 475.72274,162.38286 c -2.8442,0.94432 -4.3896,4.27685 -3.42878,7.50482 l 21.69308,71.89109 c 0.96307,3.18889 4.0527,4.94222 6.89728,3.99569 140.73565,-46.77568 293.36971,41.72609 340.2821,197.19726 0.92558,3.11025 4.03882,4.93331 6.87626,4.00472 l 65.07923,-21.64999 0.26229,-0.11249 c 2.85169,-0.95932 4.46691,-4.32812 3.51133,-7.45525 z"
       id="path3026"
       inkscape:export-filename="C:\Users\patrick\Documents\Nervous_Mosgap\documentation\graphic resources\Logo_Draft\V2\path4070-95.png"
       inkscape:export-xdpi="1011.71"
       inkscape:export-ydpi="1011.71" />
    <path
       style="fill:#f15f18;fill-opacity:1;display:inline"
       inkscape:connector-curvature="0"
       d="m 1030.2807,381.90205 -0.8281,-1.6713 C 948.66839,80.09114 717.81669,-9.0917669 439.43541,45.696932 c -2.84795,0.948167 -4.38958,4.276553 -3.42876,7.504092 l 20.65094,68.395936 c 0.96308,3.18891 4.05271,4.94194 6.89729,3.99569 240.13788,-71.331555 443.99529,75.41998 486.14899,281.87981 0.92551,3.11026 4.03837,4.93369 6.87628,4.00511 l 69.91475,-22.02922 0.2622,-0.11249 c 2.8517,-0.95933 4.4668,-4.32813 3.5114,-7.45525 z"
       id="path3026-6"
       sodipodi:nodetypes="cccccccccccc"
       inkscape:export-filename="C:\Users\patrick\Documents\Nervous_Mosgap\documentation\graphic resources\Logo_Draft\V2\path4070-95.png"
       inkscape:export-xdpi="1011.71"
       inkscape:export-ydpi="1011.71" />
  </g>
</svg>
