<?xml version="1.0" encoding="UTF-8" standalone="no"?>
<svg
   xmlns:dc="http://purl.org/dc/elements/1.1/"
   xmlns:cc="http://creativecommons.org/ns#"
   xmlns:rdf="http://www.w3.org/1999/02/22-rdf-syntax-ns#"
   xmlns:svg="http://www.w3.org/2000/svg"
   xmlns="http://www.w3.org/2000/svg"
   xmlns:sodipodi="http://sodipodi.sourceforge.net/DTD/sodipodi-0.dtd"
   xmlns:inkscape="http://www.inkscape.org/namespaces/inkscape"
   width="49"
   height="30"
   viewBox="0 0 39.200001 24"
   version="1.1"
   id="svg2"
   inkscape:version="0.48.5 r10040"
   sodipodi:docname="off.svg"
   inkscape:export-filename="C:\Users\cpcrasher\Documents\Nervous_Mosgap\documentation\graphic resources\Logo_Draft\V2\off.png"
   inkscape:export-xdpi="505.56"
   inkscape:export-ydpi="505.56">
  <metadata
     id="metadata26">
    <rdf:RDF>
      <cc:Work
         rdf:about="">
        <dc:format>image/svg+xml</dc:format>
        <dc:type
           rdf:resource="http://purl.org/dc/dcmitype/StillImage" />
        <dc:title />
      </cc:Work>
    </rdf:RDF>
  </metadata>
  <defs
     id="defs24" />
  <sodipodi:namedview
     pagecolor="#ffffff"
     bordercolor="#666666"
     borderopacity="1"
     objecttolerance="10"
     gridtolerance="10"
     guidetolerance="10"
     inkscape:pageopacity="0"
     inkscape:pageshadow="2"
     inkscape:window-width="1842"
     inkscape:window-height="1177"
     id="namedview22"
     showgrid="false"
     inkscape:snap-midpoints="false"
     inkscape:zoom="8"
     inkscape:cx="21.26098"
     inkscape:cy="23.298995"
     inkscape:window-x="70"
     inkscape:window-y="-8"
     inkscape:window-maximized="1"
     inkscape:current-layer="svg2"
     inkscape:object-nodes="true"
     showguides="false"
     inkscape:snap-nodes="false"
     fit-margin-top="0"
     fit-margin-left="0"
     fit-margin-right="0"
     fit-margin-bottom="0">
    <inkscape:grid
       type="xygrid"
       id="grid3003"
       empspacing="5"
       visible="true"
       enabled="true"
       snapvisiblegridlinesonly="true"
       originx="174.10445px"
       originy="-76.124449px" />
    <sodipodi:guide
       position="363.91694,9.6880515"
       orientation="-28.349802,5.6450719"
       id="guide3019" />
    <sodipodi:guide
       position="198.59851,9.8755515"
       orientation="-13.791952,-4.2415163"
       id="guide4005" />
    <sodipodi:guide
       position="204.72202,3.5936015"
       orientation="-2.865131,9.016735"
       id="guide4009" />
    <sodipodi:guide
       position="368.66694,9.7193015"
       orientation="-1.381068,0"
       id="guide5020" />
  </sodipodi:namedview>
  <g
     style="fill:#f15f18;fill-opacity:1"
     id="g3028"
     transform="matrix(0.55355107,0.04798827,-0.04798827,0.55355107,159.29178,7.9020469)" />
  <g
     style="fill:#f15f18;fill-opacity:1"
     id="g3030"
     transform="matrix(0.55355107,0.04798827,-0.04798827,0.55355107,159.29178,7.9020469)" />
  <g
     style="fill:#f15f18;fill-opacity:1"
     id="g3032"
     transform="matrix(0.55355107,0.04798827,-0.04798827,0.55355107,159.29178,7.9020469)" />
  <g
     style="fill:#f15f18;fill-opacity:1"
     id="g3034"
     transform="matrix(0.55355107,0.04798827,-0.04798827,0.55355107,159.29178,7.9020469)" />
  <g
     style="fill:#f15f18;fill-opacity:1"
     id="g3036"
     transform="matrix(0.55355107,0.04798827,-0.04798827,0.55355107,159.29178,7.9020469)" />
  <g
     style="fill:#f15f18;fill-opacity:1"
     id="g3038"
     transform="matrix(0.55355107,0.04798827,-0.04798827,0.55355107,159.29178,7.9020469)" />
  <g
     style="fill:#f15f18;fill-opacity:1"
     id="g3040"
     transform="matrix(0.55355107,0.04798827,-0.04798827,0.55355107,159.29178,7.9020469)" />
  <g
     style="fill:#f15f18;fill-opacity:1"
     id="g3042"
     transform="matrix(0.55355107,0.04798827,-0.04798827,0.55355107,159.29178,7.9020469)" />
  <g
     style="fill:#f15f18;fill-opacity:1"
     id="g3044"
     transform="matrix(0.55355107,0.04798827,-0.04798827,0.55355107,159.29178,7.9020469)" />
  <g
     style="fill:#f15f18;fill-opacity:1"
     id="g3046"
     transform="matrix(0.55355107,0.04798827,-0.04798827,0.55355107,159.29178,7.9020469)" />
  <g
     style="fill:#f15f18;fill-opacity:1"
     id="g3048"
     transform="matrix(0.55355107,0.04798827,-0.04798827,0.55355107,159.29178,7.9020469)" />
  <g
     style="fill:#f15f18;fill-opacity:1"
     id="g3050"
     transform="matrix(0.55355107,0.04798827,-0.04798827,0.55355107,159.29178,7.9020469)" />
  <g
     style="fill:#f15f18;fill-opacity:1"
     id="g3052"
     transform="matrix(0.55355107,0.04798827,-0.04798827,0.55355107,159.29178,7.9020469)" />
  <g
     style="fill:#f15f18;fill-opacity:1"
     id="g3054"
     transform="matrix(0.55355107,0.04798827,-0.04798827,0.55355107,159.29178,7.9020469)" />
  <g
     style="fill:#f15f18;fill-opacity:1"
     id="g3056"
     transform="matrix(0.55355107,0.04798827,-0.04798827,0.55355107,159.29178,7.9020469)" />
  <path
     style="fill:#f15f18;display:inline"
     d="m 8.9129772,8.7143399 c -0.765571,-0.02816 -1.565626,0.09258 -2.325,0.422512 -5.24,1.4713361 -8.095,9.1212871 -4.175,13.1972851 4.85,3.936817 12.0349998,-1.197946 11.9749998,-6.834752 0.804376,-3.505606 -2.157526,-6.6630311 -5.4749998,-6.7850451 z m -0.7,3.7031931 c 1.762578,-8e-4 1.65125,2.545013 1.45,4.075998 -0.23,1.849111 -1.42,3.638573 -3.45,3.728046 -1.72,-2.266652 -1.125,-5.930079 1.125,-7.630068 0.333749,-0.114327 0.623202,-0.17386 0.875,-0.173976 z"
     id="path12"
     inkscape:connector-curvature="0" />
  <path
     d="m 13.684129,23.667317 4.90333,-0.02 1.6182,-7.7498 5.25927,-0.05 0.783256,-3.79871 c -2.22815,0 -4.244426,-0.10719 -4.731926,-1.24467 -0.25742,-1.0030705 0.254121,-2.5458902 0.587759,-4.1150304 0.33327,-1.35527 1.185322,-2.04674 5.367412,-1.78072 l 0.75471,-3.756239 c -5.42628,-0.0667 -9.78038,-0.30139002 -10.43062,2.730049 -0.27697,1.789098 -0.769076,3.9185321 -1.331568,6.7696384 -0.420116,2.129446 -0.207835,0.847082 -1.166444,5.600581 -0.523938,2.598077 -1.034961,4.876456 -1.613119,7.414911 z"
     id="path4070-9"
     inkscape:connector-curvature="0"
     style="fill:#f15f18;display:inline"
     sodipodi:nodetypes="ccccccccccsscc"
     inkscape:export-xdpi="1011.71"
     inkscape:export-ydpi="1011.71" />
  <path
     d="m 24.428995,23.673942 4.90333,-0.02 1.6182,-7.7498 5.25927,-0.05 0.783256,-3.798711 c -2.228149,0 -4.244426,-0.107189 -4.731926,-1.24467 -0.25742,-1.0030701 0.254121,-2.5458901 0.587759,-4.1150302 0.33327,-1.35527 1.185322,-2.04674 5.367412,-1.78072 l 0.754711,-3.7562391 c -5.426281,-0.0667 -9.780381,-0.30138998 -10.430621,2.7300491 -0.27697,1.789098 -0.769076,3.9185321 -1.331568,6.7696382 -0.420116,2.129447 -0.207835,0.847083 -1.166444,5.600582 -0.523938,2.598077 -1.034961,4.876456 -1.613119,7.414911 z"
     id="path4070-9-0"
     inkscape:connector-curvature="0"
     style="fill:#f15f18;display:inline"
     sodipodi:nodetypes="ccccccccccsscc"
     inkscape:export-xdpi="1011.71"
     inkscape:export-ydpi="1011.71" />
</svg>
