<?xml version="1.0" encoding="UTF-8" standalone="no"?>
<svg
   xmlns:dc="http://purl.org/dc/elements/1.1/"
   xmlns:cc="http://creativecommons.org/ns#"
   xmlns:rdf="http://www.w3.org/1999/02/22-rdf-syntax-ns#"
   xmlns:svg="http://www.w3.org/2000/svg"
   xmlns="http://www.w3.org/2000/svg"
   xmlns:sodipodi="http://sodipodi.sourceforge.net/DTD/sodipodi-0.dtd"
   xmlns:inkscape="http://www.inkscape.org/namespaces/inkscape"
   width="49"
   height="30"
   viewBox="0 0 39.200001 24"
   version="1.1"
   id="svg2"
   inkscape:version="0.48.5 r10040"
   sodipodi:docname="off.svg"
   inkscape:export-filename="C:\Users\cpcrasher\Documents\Nervous_Mosgap\documentation\graphic resources\Logo_Draft\V2\off.png"
   inkscape:export-xdpi="505.56"
   inkscape:export-ydpi="505.56">
  <metadata
     id="metadata26">
    <rdf:RDF>
      <cc:Work
         rdf:about="">
        <dc:format>image/svg+xml</dc:format>
        <dc:type
           rdf:resource="http://purl.org/dc/dcmitype/StillImage" />
        <dc:title></dc:title>
      </cc:Work>
    </rdf:RDF>
  </metadata>
  <defs
     id="defs24" />
  <sodipodi:namedview
     pagecolor="#ffffff"
     bordercolor="#666666"
     borderopacity="1"
     objecttolerance="10"
     gridtolerance="10"
     guidetolerance="10"
     inkscape:pageopacity="0"
     inkscape:pageshadow="2"
     inkscape:window-width="1474"
     inkscape:window-height="841"
     id="namedview22"
     showgrid="false"
     inkscape:snap-midpoints="false"
     inkscape:zoom="4"
     inkscape:cx="132.33686"
     inkscape:cy="-15.995136"
     inkscape:window-x="54"
     inkscape:window-y="1072"
     inkscape:window-maximized="1"
     inkscape:current-layer="svg2"
     inkscape:object-nodes="true"
     showguides="false"
     inkscape:snap-nodes="false"
     fit-margin-top="0"
     fit-margin-left="0"
     fit-margin-right="0"
     fit-margin-bottom="0">
    <inkscape:grid
       type="xygrid"
       id="grid3003"
       empspacing="5"
       visible="true"
       enabled="true"
       snapvisiblegridlinesonly="true"
       originx="174.10445px"
       originy="-76.124449px" />
    <sodipodi:guide
       position="363.91694,9.6880515"
       orientation="-28.349802,5.6450719"
       id="guide3019" />
    <sodipodi:guide
       position="198.59851,9.8755515"
       orientation="-13.791952,-4.2415163"
       id="guide4005" />
    <sodipodi:guide
       position="204.72202,3.5936015"
       orientation="-2.865131,9.016735"
       id="guide4009" />
    <sodipodi:guide
       position="368.66694,9.7193015"
       orientation="-1.381068,0"
       id="guide5020" />
  </sodipodi:namedview>
  <g
     style="fill:#f15f18;fill-opacity:1"
     id="g3028"
     transform="matrix(0.55355107,0.04798827,-0.04798827,0.55355107,159.29178,7.9020469)" />
  <g
     style="fill:#f15f18;fill-opacity:1"
     id="g3030"
     transform="matrix(0.55355107,0.04798827,-0.04798827,0.55355107,159.29178,7.9020469)" />
  <g
     style="fill:#f15f18;fill-opacity:1"
     id="g3032"
     transform="matrix(0.55355107,0.04798827,-0.04798827,0.55355107,159.29178,7.9020469)" />
  <g
     style="fill:#f15f18;fill-opacity:1"
     id="g3034"
     transform="matrix(0.55355107,0.04798827,-0.04798827,0.55355107,159.29178,7.9020469)" />
  <g
     style="fill:#f15f18;fill-opacity:1"
     id="g3036"
     transform="matrix(0.55355107,0.04798827,-0.04798827,0.55355107,159.29178,7.9020469)" />
  <g
     style="fill:#f15f18;fill-opacity:1"
     id="g3038"
     transform="matrix(0.55355107,0.04798827,-0.04798827,0.55355107,159.29178,7.9020469)" />
  <g
     style="fill:#f15f18;fill-opacity:1"
     id="g3040"
     transform="matrix(0.55355107,0.04798827,-0.04798827,0.55355107,159.29178,7.9020469)" />
  <g
     style="fill:#f15f18;fill-opacity:1"
     id="g3042"
     transform="matrix(0.55355107,0.04798827,-0.04798827,0.55355107,159.29178,7.9020469)" />
  <g
     style="fill:#f15f18;fill-opacity:1"
     id="g3044"
     transform="matrix(0.55355107,0.04798827,-0.04798827,0.55355107,159.29178,7.9020469)" />
  <g
     style="fill:#f15f18;fill-opacity:1"
     id="g3046"
     transform="matrix(0.55355107,0.04798827,-0.04798827,0.55355107,159.29178,7.9020469)" />
  <g
     style="fill:#f15f18;fill-opacity:1"
     id="g3048"
     transform="matrix(0.55355107,0.04798827,-0.04798827,0.55355107,159.29178,7.9020469)" />
  <g
     style="fill:#f15f18;fill-opacity:1"
     id="g3050"
     transform="matrix(0.55355107,0.04798827,-0.04798827,0.55355107,159.29178,7.9020469)" />
  <g
     style="fill:#f15f18;fill-opacity:1"
     id="g3052"
     transform="matrix(0.55355107,0.04798827,-0.04798827,0.55355107,159.29178,7.9020469)" />
  <g
     style="fill:#f15f18;fill-opacity:1"
     id="g3054"
     transform="matrix(0.55355107,0.04798827,-0.04798827,0.55355107,159.29178,7.9020469)" />
  <g
     style="fill:#f15f18;fill-opacity:1"
     id="g3056"
     transform="matrix(0.55355107,0.04798827,-0.04798827,0.55355107,159.29178,7.9020469)" />
  <path
     style="fill:#f15f18;display:inline"
     d="m 8.9129772,8.7143399 c -0.765571,-0.02816 -1.565626,0.09258 -2.325,0.422512 -5.24,1.4713361 -8.095,9.1212871 -4.175,13.1972851 4.85,3.936817 12.0349998,-1.197946 11.9749998,-6.834752 0.804376,-3.505606 -2.157526,-6.6630311 -5.4749998,-6.7850451 z m -0.7,3.7031931 c 1.762578,-8e-4 1.65125,2.545013 1.45,4.075998 -0.23,1.849111 -1.42,3.638573 -3.45,3.728046 -1.72,-2.266652 -1.125,-5.930079 1.125,-7.630068 0.333749,-0.114327 0.623202,-0.17386 0.875,-0.173976 z"
     id="path12"
     inkscape:connector-curvature="0" />
  <path
     d="m 18.652758,23.702241 4.90333,-0.02 c -0.13939,-0.7 -1.23015,-6.42043 -1.4818,-7.7498 l 5.25927,-0.05 -0.71241,-3.79871 c -2.22815,0 -5.22376,-0.10719 -5.71126,-1.24467 -0.25742,-1.0030701 -0.60697,-2.7961501 -0.87082,-4.1150301 -0.17923,-1.91777 1.09819,-2.04674 5.28028,-1.78072 l -1.07029,-3.7562391 c -5.42628,-0.0667 -9.00538,0.27361 -9.55562,2.7300491 0.07303,1.839098 0.604675,3.836545 1.233077,6.7696381 0.361081,1.685364 0.763451,3.604905 1.17775,5.591742 0.516678,2.477815 1.051911,5.060295 1.548753,7.42375 z"
     id="path4070-9"
     inkscape:connector-curvature="0"
     style="fill:#f15f18;display:inline"
     sodipodi:nodetypes="ccccccccccsscc"
     inkscape:export-xdpi="1011.71"
     inkscape:export-ydpi="1011.71" />
  <path
     inkscape:export-ydpi="1011.71"
     inkscape:export-xdpi="1011.71"
     sodipodi:nodetypes="ccccccccccsscc"
     style="fill:#f15f18;display:inline"
     inkscape:connector-curvature="0"
     id="path3114"
     d="m 17.945651,23.702241 4.90333,-0.02 c -0.13939,-0.7 -1.23015,-6.42043 -1.4818,-7.7498 l 5.25927,-0.05 -0.71241,-3.79871 c -2.22815,0 -5.22376,-0.10719 -5.71126,-1.24467 -0.25742,-1.0030701 -0.60697,-2.7961501 -0.87082,-4.1150301 -0.17923,-1.91777 1.09819,-2.04674 5.28028,-1.78072 l -1.07029,-3.7562391 c -5.42628,-0.0667 -9.00538,0.27361 -9.55562,2.7300491 0.07303,1.839098 0.604675,3.836545 1.233077,6.7696381 0.361081,1.685364 0.763451,3.604905 1.17775,5.591742 0.516678,2.477815 1.051911,5.060295 1.548753,7.42375 z" />
  <path
     inkscape:export-ydpi="1011.71"
     inkscape:export-xdpi="1011.71"
     sodipodi:nodetypes="ccccccccccsscc"
     style="fill:#f15f18;display:inline"
     inkscape:connector-curvature="0"
     id="path3114-1"
     d="m 29.983243,23.523336 4.903331,-0.02 c -0.13939,-0.7 -1.23015,-6.420431 -1.481801,-7.749801 l 5.25927,-0.05 -0.71241,-3.79871 c -2.228149,0 -5.22376,-0.10719 -5.71126,-1.24467 -0.25742,-1.0030701 -0.60697,-2.7961501 -0.87082,-4.1150301 -0.17923,-1.91777 1.09819,-2.04674 5.280281,-1.78072 l -1.07029,-3.7562395 c -5.426281,-0.0667 -9.005381,0.27361 -9.555621,2.7300495 0.07303,1.839098 0.604675,3.836545 1.233077,6.7696381 0.361081,1.685364 0.763451,3.604905 1.17775,5.591743 0.516678,2.477814 1.051911,5.060294 1.548753,7.423749 z" />
</svg>
