<?xml version="1.0" encoding="UTF-8" standalone="no"?>
<svg
   xmlns:dc="http://purl.org/dc/elements/1.1/"
   xmlns:cc="http://creativecommons.org/ns#"
   xmlns:rdf="http://www.w3.org/1999/02/22-rdf-syntax-ns#"
   xmlns:svg="http://www.w3.org/2000/svg"
   xmlns="http://www.w3.org/2000/svg"
   xmlns:sodipodi="http://sodipodi.sourceforge.net/DTD/sodipodi-0.dtd"
   xmlns:inkscape="http://www.inkscape.org/namespaces/inkscape"
   width="40"
   height="20"
   viewBox="0 0 32 16"
   version="1.1"
   id="svg2"
   inkscape:version="0.48.5 r10040"
   sodipodi:docname="on.svg"
   inkscape:export-filename="C:\Users\cpcrasher\Documents\Nervous_Mosgap\documentation\graphic resources\Logo_Draft\V2\on.png"
   inkscape:export-xdpi="505.56"
   inkscape:export-ydpi="505.56">
  <metadata
     id="metadata26">
    <rdf:RDF>
      <cc:Work
         rdf:about="">
        <dc:format>image/svg+xml</dc:format>
        <dc:type
           rdf:resource="http://purl.org/dc/dcmitype/StillImage" />
        <dc:title></dc:title>
      </cc:Work>
    </rdf:RDF>
  </metadata>
  <defs
     id="defs24" />
  <sodipodi:namedview
     pagecolor="#ffffff"
     bordercolor="#666666"
     borderopacity="1"
     objecttolerance="10"
     gridtolerance="10"
     guidetolerance="10"
     inkscape:pageopacity="0"
     inkscape:pageshadow="2"
     inkscape:window-width="446"
     inkscape:window-height="453"
     id="namedview22"
     showgrid="false"
     inkscape:snap-midpoints="false"
     inkscape:zoom="4"
     inkscape:cx="41.49263"
     inkscape:cy="12.333635"
     inkscape:window-x="690"
     inkscape:window-y="1332"
     inkscape:window-maximized="0"
     inkscape:current-layer="svg2"
     inkscape:object-nodes="true"
     showguides="false"
     inkscape:snap-nodes="false"
     fit-margin-top="0"
     fit-margin-left="0"
     fit-margin-right="0"
     fit-margin-bottom="0">
    <inkscape:grid
       type="xygrid"
       id="grid3003"
       empspacing="5"
       visible="true"
       enabled="true"
       snapvisiblegridlinesonly="true"
       originx="174.10445px"
       originy="-76.124449px" />
    <sodipodi:guide
       position="363.91694,9.6880515"
       orientation="-28.349802,5.6450719"
       id="guide3019" />
    <sodipodi:guide
       position="198.59851,9.8755515"
       orientation="-13.791952,-4.2415163"
       id="guide4005" />
    <sodipodi:guide
       position="204.72202,3.5936015"
       orientation="-2.865131,9.016735"
       id="guide4009" />
    <sodipodi:guide
       position="368.66694,9.7193015"
       orientation="-1.381068,0"
       id="guide5020" />
  </sodipodi:namedview>
  <g
     style="fill:#f15f18;fill-opacity:1"
     id="g3028"
     transform="matrix(0.55355107,0.04798827,-0.04798827,0.55355107,159.29178,-0.09795795)" />
  <g
     style="fill:#f15f18;fill-opacity:1"
     id="g3030"
     transform="matrix(0.55355107,0.04798827,-0.04798827,0.55355107,159.29178,-0.09795795)" />
  <g
     style="fill:#f15f18;fill-opacity:1"
     id="g3032"
     transform="matrix(0.55355107,0.04798827,-0.04798827,0.55355107,159.29178,-0.09795795)" />
  <g
     style="fill:#f15f18;fill-opacity:1"
     id="g3034"
     transform="matrix(0.55355107,0.04798827,-0.04798827,0.55355107,159.29178,-0.09795795)" />
  <g
     style="fill:#f15f18;fill-opacity:1"
     id="g3036"
     transform="matrix(0.55355107,0.04798827,-0.04798827,0.55355107,159.29178,-0.09795795)" />
  <g
     style="fill:#f15f18;fill-opacity:1"
     id="g3038"
     transform="matrix(0.55355107,0.04798827,-0.04798827,0.55355107,159.29178,-0.09795795)" />
  <g
     style="fill:#f15f18;fill-opacity:1"
     id="g3040"
     transform="matrix(0.55355107,0.04798827,-0.04798827,0.55355107,159.29178,-0.09795795)" />
  <g
     style="fill:#f15f18;fill-opacity:1"
     id="g3042"
     transform="matrix(0.55355107,0.04798827,-0.04798827,0.55355107,159.29178,-0.09795795)" />
  <g
     style="fill:#f15f18;fill-opacity:1"
     id="g3044"
     transform="matrix(0.55355107,0.04798827,-0.04798827,0.55355107,159.29178,-0.09795795)" />
  <g
     style="fill:#f15f18;fill-opacity:1"
     id="g3046"
     transform="matrix(0.55355107,0.04798827,-0.04798827,0.55355107,159.29178,-0.09795795)" />
  <g
     style="fill:#f15f18;fill-opacity:1"
     id="g3048"
     transform="matrix(0.55355107,0.04798827,-0.04798827,0.55355107,159.29178,-0.09795795)" />
  <g
     style="fill:#f15f18;fill-opacity:1"
     id="g3050"
     transform="matrix(0.55355107,0.04798827,-0.04798827,0.55355107,159.29178,-0.09795795)" />
  <g
     style="fill:#f15f18;fill-opacity:1"
     id="g3052"
     transform="matrix(0.55355107,0.04798827,-0.04798827,0.55355107,159.29178,-0.09795795)" />
  <g
     style="fill:#f15f18;fill-opacity:1"
     id="g3054"
     transform="matrix(0.55355107,0.04798827,-0.04798827,0.55355107,159.29178,-0.09795795)" />
  <g
     style="fill:#f15f18;fill-opacity:1"
     id="g3056"
     transform="matrix(0.55355107,0.04798827,-0.04798827,0.55355107,159.29178,-0.09795795)" />
  <path
     style="fill:#f15f18;display:inline"
     d="m 10.112978,0.95453705 c -0.7655712,-0.02816 -1.5656262,0.09258 -2.3250002,0.42251205 -5.24,1.471336 -8.09499998,9.1212869 -4.175,13.1972849 4.85,3.936817 12.0350002,-1.197946 11.9750002,-6.8347519 0.804376,-3.505606 -2.157526,-6.663031 -5.475,-6.78504505 z M 9.4129778,4.6577301 c 1.7625782,-8e-4 1.6512502,2.545013 1.4500002,4.075998 -0.23,1.8491109 -1.4200002,3.6385729 -3.4500002,3.7280459 -1.72,-2.266652 -1.125,-5.9300789 1.125,-7.6300679 0.333749,-0.114327 0.623202,-0.17386 0.875,-0.173976 z"
     id="path12"
     inkscape:connector-curvature="0" />
  <path
     d="m 18.417359,1.0975611 4.84154,0 c -0.11224,0.49571 -0.22635,1.07169 -0.33859,1.5674 2.2,-1.34999 5.9027,-3.07740005 7.3927,0.0526 0.86472,1.7833 -1.06,8.4899999 -1.77,12.7799999 -1.55,0.01 -3.1,0 -4.65,0 0.62,-3.4 1.62,-6.5599999 1.85,-10.0199999 -1.13,-1.37 -2.81,-0.08 -3.51,1.05 -1.03,2.96 -1.34,5.9099999 -1.99,8.9699999 -1.54,0 -3.15301,0 -4.69301,0 1,-4.85 2.08736,-9.5099999 2.86736,-14.3999999 z"
     id="path6-8"
     inkscape:connector-curvature="0"
     style="fill:#f15f18;display:inline"
     sodipodi:nodetypes="ccccccccccc"
     inkscape:export-filename="C:\Users\patrick\Documents\Nervous_Mosgap\documentation\graphic resources\Logo_Draft\V2\path4070-95.png"
     inkscape:export-xdpi="1011.71"
     inkscape:export-ydpi="1011.71" />
  <path
     style="fill:#f15f18;fill-opacity:1;display:inline"
     inkscape:connector-curvature="0"
     d="m 30.003149,2.8036511 c -0.39547,-1.16546 -1.36625,-1.83871005 -2.56503,-1.46663 -0.0616,0.0188 -0.0963,0.0312 -0.0576,0.15776 l 0.64698,2.07524 1.85837,-0.57101 c 0.19403,-0.0647 0.1387,-0.12429 0.11725,-0.19536 z"
     id="path3022-1"
     inkscape:export-filename="C:\Users\patrick\Documents\Nervous_Mosgap\documentation\graphic resources\Logo_Draft\V2\path4070-95.png"
     inkscape:export-xdpi="1011.71"
     inkscape:export-ydpi="1011.71" />
</svg>
