<?xml version="1.0" encoding="UTF-8" standalone="no"?>
<svg
   xmlns:dc="http://purl.org/dc/elements/1.1/"
   xmlns:cc="http://creativecommons.org/ns#"
   xmlns:rdf="http://www.w3.org/1999/02/22-rdf-syntax-ns#"
   xmlns:svg="http://www.w3.org/2000/svg"
   xmlns="http://www.w3.org/2000/svg"
   xmlns:sodipodi="http://sodipodi.sourceforge.net/DTD/sodipodi-0.dtd"
   xmlns:inkscape="http://www.inkscape.org/namespaces/inkscape"
   width="200"
   height="150"
   viewBox="0 0 160 120"
   version="1.1"
   id="svg2"
   inkscape:version="0.48.5 r10040"
   sodipodi:docname="Schriftzug6.svg"
   inkscape:export-filename="C:\Users\patrick\Documents\Nervous_Mosgap\documentation\graphic resources\Logo_Draft\V2\path4070-96.png"
   inkscape:export-xdpi="900"
   inkscape:export-ydpi="900"
   inkscape:label="Nervous">
  <metadata
     id="metadata26">
    <rdf:RDF>
      <cc:Work
         rdf:about="">
        <dc:format>image/svg+xml</dc:format>
        <dc:type
           rdf:resource="http://purl.org/dc/dcmitype/StillImage" />
        <dc:title></dc:title>
      </cc:Work>
    </rdf:RDF>
  </metadata>
  <defs
     id="defs24">
    <marker
       inkscape:stockid="DotL"
       orient="auto"
       refY="0.0"
       refX="0.0"
       id="DotL"
       style="overflow:visible">
      <path
         id="path5327"
         d="M -2.5,-1.0 C -2.5,1.7600000 -4.7400000,4.0 -7.5,4.0 C -10.260000,4.0 -12.5,1.7600000 -12.5,-1.0 C -12.5,-3.7600000 -10.260000,-6.0 -7.5,-6.0 C -4.7400000,-6.0 -2.5,-3.7600000 -2.5,-1.0 z "
         style="fill-rule:evenodd;stroke:#000000;stroke-width:1.0pt"
         transform="scale(0.8) translate(7.4, 1)" />
    </marker>
  </defs>
  <sodipodi:namedview
     pagecolor="#ffffff"
     bordercolor="#666666"
     borderopacity="1"
     objecttolerance="10"
     gridtolerance="10"
     guidetolerance="10"
     inkscape:pageopacity="0"
     inkscape:pageshadow="2"
     inkscape:window-width="1858"
     inkscape:window-height="1057"
     id="namedview22"
     showgrid="false"
     inkscape:snap-midpoints="false"
     inkscape:zoom="8"
     inkscape:cx="35.28128"
     inkscape:cy="69.314291"
     inkscape:window-x="-8"
     inkscape:window-y="-8"
     inkscape:window-maximized="1"
     inkscape:current-layer="layer3"
     inkscape:object-nodes="true"
     showguides="false"
     inkscape:snap-nodes="false">
    <inkscape:grid
       type="xygrid"
       id="grid3003"
       empspacing="5"
       visible="true"
       enabled="true"
       snapvisiblegridlinesonly="true" />
    <sodipodi:guide
       position="189.8125,85.8125"
       orientation="-28.349802,5.6450719"
       id="guide3019" />
    <sodipodi:guide
       position="24.494059,86"
       orientation="-13.791952,-4.2415163"
       id="guide4005" />
    <sodipodi:guide
       position="30.617574,79.71805"
       orientation="-2.865131,9.016735"
       id="guide4009" />
    <sodipodi:guide
       position="194.5625,85.84375"
       orientation="-1.381068,0"
       id="guide5020" />
  </sodipodi:namedview>
  <g
     inkscape:groupmode="layer"
     id="layer2"
     inkscape:label="Graph#1"
     style="display:inline">
    <path
       inkscape:export-ydpi="1011.71"
       inkscape:export-xdpi="1011.71"
       inkscape:export-filename="C:\Users\patrick\Documents\Nervous_Mosgap\documentation\graphic resources\Logo_Draft\V2\path4070-95.png"
       style="fill:none;stroke:#c3c3c3;stroke-width:1.60000002000000000;stroke-linejoin:round;stroke-miterlimit:4;stroke-opacity:1;stroke-dasharray:none"
       inkscape:connector-curvature="0"
       id="path5102"
       d="m 34.380596,75.458238 c 4.686397,-1.34574 7.941473,1.91858 7.800001,6.4 -0.293553,5.81142 -7.130001,10.830001 -11.980001,6.87 -3.92,-4.1 -1.06,-11.43645 4.18,-13.27 z"
       sodipodi:nodetypes="cccc" />
    <path
       style="fill:none;stroke:#c3c3c3;stroke-width:1.60000002000000000;stroke-linecap:butt;stroke-linejoin:miter;stroke-miterlimit:4;stroke-opacity:1;stroke-dasharray:none"
       d="m 41.454984,85.885528 30.72864,17.341432"
       id="path5104"
       inkscape:connector-curvature="0"
       sodipodi:nodetypes="cc" />
    <path
       sodipodi:nodetypes="cccc"
       d="m 77.134209,100.54108 c 4.686394,-1.345732 7.941474,1.91858 7.800004,6.4 -0.29356,5.81142 -7.130004,10.83 -11.98,6.87 -3.920001,-4.1 -1.06,-11.43644 4.179996,-13.27 z"
       id="path5106"
       inkscape:connector-curvature="0"
       style="fill:none;stroke:#c3c3c3;stroke-width:1.60000002000000000;stroke-linejoin:round;stroke-miterlimit:4;stroke-opacity:1;stroke-dasharray:none"
       inkscape:export-filename="C:\Users\patrick\Documents\Nervous_Mosgap\documentation\graphic resources\Logo_Draft\V2\path4070-95.png"
       inkscape:export-xdpi="1011.71"
       inkscape:export-ydpi="1011.71" />
    <path
       inkscape:export-ydpi="1011.71"
       inkscape:export-xdpi="1011.71"
       inkscape:export-filename="C:\Users\patrick\Documents\Nervous_Mosgap\documentation\graphic resources\Logo_Draft\V2\path4070-95.png"
       style="fill:none;stroke:#c3c3c3;stroke-width:1.60000002000000000;stroke-linejoin:round;stroke-miterlimit:4;stroke-opacity:1;stroke-dasharray:none"
       inkscape:connector-curvature="0"
       id="path5252"
       d="m 146.13421,66.741078 c 4.68639,-1.34573 7.94147,1.91858 7.8,6.4 -0.29356,5.81142 -7.13,10.830001 -11.98,6.87 -3.92,-4.1 -1.06,-11.43644 4.18,-13.27 z"
       sodipodi:nodetypes="cccc" />
    <path
       sodipodi:nodetypes="cc"
       inkscape:connector-curvature="0"
       id="path5254"
       d="m 111.0824,90.512947 -9.1262,-43.11341"
       style="fill:none;stroke:#c3c3c3;stroke-width:1.60000002000000000;stroke-linecap:butt;stroke-linejoin:miter;stroke-miterlimit:4;stroke-opacity:1;stroke-dasharray:none" />
    <path
       inkscape:export-ydpi="1011.71"
       inkscape:export-xdpi="1011.71"
       inkscape:export-filename="C:\Users\patrick\Documents\Nervous_Mosgap\documentation\graphic resources\Logo_Draft\V2\path4070-95.png"
       style="fill:none;stroke:#c3c3c3;stroke-width:1.60000002000000000;stroke-linejoin:round;stroke-miterlimit:4;stroke-opacity:1;stroke-dasharray:none"
       inkscape:connector-curvature="0"
       id="path5256"
       d="m 99.73421,33.541078 c 4.68639,-1.34573 7.94147,1.91858 7.8,6.4 -0.29356,5.81142 -7.13,10.830001 -11.979997,6.87 -3.920001,-4.1 -1.06,-11.43644 4.179997,-13.27 z"
       sodipodi:nodetypes="cccc" />
    <path
       sodipodi:nodetypes="cc"
       inkscape:connector-curvature="0"
       id="path5258"
       d="m 40.654984,76.885528 53.92864,-32.05857"
       style="fill:none;stroke:#c3c3c3;stroke-width:1.60000002000000000;stroke-linecap:butt;stroke-linejoin:miter;stroke-miterlimit:4;stroke-opacity:1;stroke-dasharray:none;marker-start:none;marker-mid:none" />
    <path
       style="fill:none;stroke:#c3c3c3;stroke-width:1.60000002000000000;stroke-linecap:butt;stroke-linejoin:miter;stroke-miterlimit:4;stroke-opacity:1;stroke-dasharray:none"
       d="m 106.85498,43.285528 35.12864,26.74143"
       id="path5260"
       inkscape:connector-curvature="0"
       sodipodi:nodetypes="cc" />
    <path
       sodipodi:nodetypes="cccc"
       d="m 51.33421,19.541078 c 4.68639,-1.34573 7.94147,1.91858 7.8,6.4 -0.29356,5.81142 -7.13,10.830001 -11.98,6.87 -3.92,-4.1 -1.06,-11.43644 4.18,-13.27 z"
       id="path6070"
       inkscape:connector-curvature="0"
       style="fill:none;stroke:#c3c3c3;stroke-width:1.60000002000000000;stroke-linejoin:round;stroke-miterlimit:4;stroke-opacity:1;stroke-dasharray:none"
       inkscape:export-filename="C:\Users\patrick\Documents\Nervous_Mosgap\documentation\graphic resources\Logo_Draft\V2\path4070-95.png"
       inkscape:export-xdpi="1011.71"
       inkscape:export-ydpi="1011.71" />
    <path
       sodipodi:nodetypes="cc"
       inkscape:connector-curvature="0"
       id="path6072"
       d="m 58.05498,27.685528 36.32864,9.94143"
       style="fill:none;stroke:#c3c3c3;stroke-width:1.60000002000000000;stroke-linecap:butt;stroke-linejoin:miter;stroke-miterlimit:4;stroke-opacity:1;stroke-dasharray:none" />
    <path
       inkscape:export-ydpi="1011.71"
       inkscape:export-xdpi="1011.71"
       inkscape:export-filename="C:\Users\patrick\Documents\Nervous_Mosgap\documentation\graphic resources\Logo_Draft\V2\path4070-95.png"
       style="fill:none;stroke:#c3c3c3;stroke-width:1.60000002000000000;stroke-linejoin:round;stroke-miterlimit:4;stroke-opacity:1;stroke-dasharray:none"
       inkscape:connector-curvature="0"
       id="path6074"
       d="m 112.33421,90.54108 c 4.68639,-1.345732 7.94147,1.91858 7.8,6.4 -0.29356,5.81142 -7.13,10.83 -11.98,6.87 -3.92,-4.1 -1.06,-11.43644 4.18,-13.27 z"
       sodipodi:nodetypes="cccc" />
    <path
       style="fill:none;stroke:#c3c3c3;stroke-width:1.60000002000000000;stroke-linecap:butt;stroke-linejoin:miter;stroke-miterlimit:4;stroke-opacity:1;stroke-dasharray:none;marker-start:none;marker-mid:none"
       d="m 37.454984,74.085528 11.92864,-39.65857"
       id="path6076"
       inkscape:connector-curvature="0"
       sodipodi:nodetypes="cc" />
    <path
       style="fill:none;stroke:#c3c3c3;stroke-width:1.60000002000000000;stroke-linecap:butt;stroke-linejoin:miter;stroke-miterlimit:4;stroke-opacity:1;stroke-dasharray:none"
       d="M 104.05498,33.285528 116.38362,0.42695798"
       id="path6078"
       inkscape:connector-curvature="0"
       sodipodi:nodetypes="cc" />
    <path
       style="fill:none;stroke:#c3c3c3;stroke-width:1.60000002000000000;stroke-linecap:butt;stroke-linejoin:miter;stroke-miterlimit:4;stroke-opacity:1;stroke-dasharray:none"
       d="m 0.45498,29.285528 44.32864,-2.45857"
       id="path6080"
       inkscape:connector-curvature="0"
       sodipodi:nodetypes="cc" />
    <path
       style="fill:none;stroke:#c3c3c3;stroke-width:1.60000002000000000;stroke-linecap:butt;stroke-linejoin:miter;stroke-miterlimit:4;stroke-opacity:1;stroke-dasharray:none;marker-start:none;marker-mid:none"
       d="M 1.854984,120.08553 30.583624,90.026958"
       id="path6082"
       inkscape:connector-curvature="0"
       sodipodi:nodetypes="cc" />
    <path
       sodipodi:nodetypes="cc"
       inkscape:connector-curvature="0"
       id="path6084"
       d="M 50.05498,19.685528 43.98362,-0.37304199"
       style="fill:none;stroke:#c3c3c3;stroke-width:1.60000002000000000;stroke-linecap:butt;stroke-linejoin:miter;stroke-miterlimit:4;stroke-opacity:1;stroke-dasharray:none" />
  </g>
  <g
     style="fill:#f15f18;fill-opacity:1"
     id="g3028"
     transform="matrix(0.55355107,0.04798827,-0.04798827,0.55355107,20.008222,43.002484)">
</g>
  <g
     style="fill:#f15f18;fill-opacity:1"
     id="g3030"
     transform="matrix(0.55355107,0.04798827,-0.04798827,0.55355107,20.008222,43.002484)">
</g>
  <g
     style="fill:#f15f18;fill-opacity:1"
     id="g3032"
     transform="matrix(0.55355107,0.04798827,-0.04798827,0.55355107,20.008222,43.002484)">
</g>
  <g
     style="fill:#f15f18;fill-opacity:1"
     id="g3034"
     transform="matrix(0.55355107,0.04798827,-0.04798827,0.55355107,20.008222,43.002484)">
</g>
  <g
     style="fill:#f15f18;fill-opacity:1"
     id="g3036"
     transform="matrix(0.55355107,0.04798827,-0.04798827,0.55355107,20.008222,43.002484)">
</g>
  <g
     style="fill:#f15f18;fill-opacity:1"
     id="g3038"
     transform="matrix(0.55355107,0.04798827,-0.04798827,0.55355107,20.008222,43.002484)">
</g>
  <g
     style="fill:#f15f18;fill-opacity:1"
     id="g3040"
     transform="matrix(0.55355107,0.04798827,-0.04798827,0.55355107,20.008222,43.002484)">
</g>
  <g
     style="fill:#f15f18;fill-opacity:1"
     id="g3042"
     transform="matrix(0.55355107,0.04798827,-0.04798827,0.55355107,20.008222,43.002484)">
</g>
  <g
     style="fill:#f15f18;fill-opacity:1"
     id="g3044"
     transform="matrix(0.55355107,0.04798827,-0.04798827,0.55355107,20.008222,43.002484)">
</g>
  <g
     style="fill:#f15f18;fill-opacity:1"
     id="g3046"
     transform="matrix(0.55355107,0.04798827,-0.04798827,0.55355107,20.008222,43.002484)">
</g>
  <g
     style="fill:#f15f18;fill-opacity:1"
     id="g3048"
     transform="matrix(0.55355107,0.04798827,-0.04798827,0.55355107,20.008222,43.002484)">
</g>
  <g
     style="fill:#f15f18;fill-opacity:1"
     id="g3050"
     transform="matrix(0.55355107,0.04798827,-0.04798827,0.55355107,20.008222,43.002484)">
</g>
  <g
     style="fill:#f15f18;fill-opacity:1"
     id="g3052"
     transform="matrix(0.55355107,0.04798827,-0.04798827,0.55355107,20.008222,43.002484)">
</g>
  <g
     style="fill:#f15f18;fill-opacity:1"
     id="g3054"
     transform="matrix(0.55355107,0.04798827,-0.04798827,0.55355107,20.008222,43.002484)">
</g>
  <g
     style="fill:#f15f18;fill-opacity:1"
     id="g3056"
     transform="matrix(0.55355107,0.04798827,-0.04798827,0.55355107,20.008222,43.002484)">
</g>
  <g
     inkscape:groupmode="layer"
     id="layer3"
     inkscape:label="Nervous"
     style="display:inline">
    <path
       d="m 11.179381,52.281379 4.84154,0 c -0.112237,0.49571 -0.22635,1.0717 -0.338589,1.56741 2.2,-1.34999 5.9027,-3.07741 7.3927,0.0526 0.864716,1.78329 -1.06,8.49 -1.77,12.78 -1.55,0.01 -3.100001,0 -4.650001,0 0.62,-3.4 1.62,-6.56 1.850001,-10.02 -1.130001,-1.37 -2.810001,-0.08 -3.510001,1.05 -1.03,2.96 -1.34,5.91 -1.99,8.97 -1.54,0 -3.1530083,0 -4.6930083,0 1,-4.85 2.0873583,-9.51 2.8673583,-14.4 z"
       id="path6"
       inkscape:connector-curvature="0"
       style="fill:#f15f18"
       sodipodi:nodetypes="ccccccccccc"
       inkscape:export-filename="C:\Users\patrick\Documents\Nervous_Mosgap\documentation\graphic resources\Logo_Draft\V2\path4070-95.png"
       inkscape:export-xdpi="1011.71"
       inkscape:export-ydpi="1011.71" />
    <path
       d="m 31.465032,52.427819 c 2.15,-0.81 5.04,-0.41 6.25,1.73 1.3,2.13 0.38,4.63 -0.05,6.86 -2.78,-0.04 -5.57,-0.01 -8.35,0.18 1.33,2.3 3.81,2.62 6.16,1.83 0.51,0.98 1.01,1.96 1.52,2.94 -3.26,0.97 -7.51,2.2 -10.1,-0.81 -3.46,-4.33 -0.44,-11.2 4.57,-12.73 z"
       id="path8"
       style="fill:#f15f18;fill-opacity:1"
       inkscape:connector-curvature="0"
       inkscape:export-filename="C:\Users\patrick\Documents\Nervous_Mosgap\documentation\graphic resources\Logo_Draft\V2\path4070-95.png"
       inkscape:export-xdpi="1011.71"
       inkscape:export-ydpi="1011.71" />
    <path
       d="m 51.95811,52.409639 5.106922,0.002 c 0.14,3.75 0.27,7.5 0.34,11.25 1.57,-3.76 3.17,-7.5 4.759999,-11.24 1.5,-0.04 3.01,-0.06 4.52,-0.07 -2.39,4.85 -4.819999,9.67 -7.239999,14.5 -1.8,0.03 -3.61,0.06 -5.41,0.11 z"
       id="path10"
       inkscape:connector-curvature="0"
       style="fill:#f15f18"
       sodipodi:nodetypes="cccccccc"
       inkscape:export-filename="C:\Users\patrick\Documents\Nervous_Mosgap\documentation\graphic resources\Logo_Draft\V2\path4070-95.png"
       inkscape:export-xdpi="1011.71"
       inkscape:export-ydpi="1011.71" />
    <path
       d="m 72.505031,52.481379 c 4.05,-1.77 8.79,2.06 7.8,6.4 0.06,5.67 -7.13,10.83 -11.98,6.87 -3.92,-4.1 -1.06,-11.79 4.18,-13.27 z"
       id="path12"
       inkscape:connector-curvature="0"
       style="fill:#f15f18"
       inkscape:export-filename="C:\Users\patrick\Documents\Nervous_Mosgap\documentation\graphic resources\Logo_Draft\V2\path4070-95.png"
       inkscape:export-xdpi="1011.71"
       inkscape:export-ydpi="1011.71" />
    <path
       d="m 92.175031,52.311379 c 1.56,0.01 3.13,0.01 4.69,0.03 -0.92,4.85 -1.93,9.69 -2.84,14.55 -1.26,-0.03 -3.12104,-0.05 -4.38104,-0.08 l 0.22104,-1.6 c -1.969999,1.99 -6.679999,3.23 -7.609999,-0.36 -0.280001,-4.24 1.14,-8.36 1.85,-12.5 1.55,0 3.09,0.01 4.639999,0.02 -0.759999,3.66 -1.519999,7.33 -1.959999,11.05 -0.168859,0.93886 3.293879,0.16066 3.599999,-1.36 0.54,-3.26 1.16,-6.5 1.79,-9.75 z"
       id="path14"
       inkscape:connector-curvature="0"
       style="fill:#f15f18"
       sodipodi:nodetypes="ccccccccccc"
       inkscape:export-filename="C:\Users\patrick\Documents\Nervous_Mosgap\documentation\graphic resources\Logo_Draft\V2\path4070-95.png"
       inkscape:export-xdpi="1011.71"
       inkscape:export-ydpi="1011.71" />
    <path
       d="m 99.325031,55.071379 c 2.009999,-4.02 7.459999,-3.38 10.459999,-0.89 -0.8,0.74 -1.6,1.46 -2.4,2.19 -1.57,-0.38 -3.70033,-1.98886 -4.79,-0.69 -0.57597,0.80541 3.5,2.97 5.14,4.58 1.86,2.74 -0.63,6.31 -3.62,6.68 -2.8,0.87 -5.319999,-0.75 -7.339999,-2.5 0.64,-0.51 1.92,-1.52 2.56,-2.03 1.629999,0.96 4.147819,2.7746 5.229999,0.77 0.84199,-1.55431 -7.159999,-4.14 -5.239999,-8.11 z"
       id="path16"
       inkscape:connector-curvature="0"
       style="fill:#f15f18"
       sodipodi:nodetypes="cccccccccc"
       inkscape:export-filename="C:\Users\patrick\Documents\Nervous_Mosgap\documentation\graphic resources\Logo_Draft\V2\path4070-95.png"
       inkscape:export-xdpi="1011.71"
       inkscape:export-ydpi="1011.71" />
    <path
       d="m 29.825032,58.141379 c 1.15,-1.35 2.54,-2.48 4.38,-2.65 0.17,0.91 0.33,1.81 0.49,2.72 -1.63,-0.01 -3.25,-0.03 -4.87,-0.07 z"
       id="path18"
       inkscape:connector-curvature="0"
       style="fill:#fdfdfd"
       inkscape:export-filename="C:\Users\patrick\Documents\Nervous_Mosgap\documentation\graphic resources\Logo_Draft\V2\path4070-95.png"
       inkscape:export-xdpi="1011.71"
       inkscape:export-ydpi="1011.71" />
    <path
       d="m 73.255031,55.941379 c 2.67,-0.92 2.55,2.17 2.32,3.93 -0.23,1.86 -1.43,3.66 -3.46,3.75 -1.72,-2.28 -1.11,-5.97 1.14,-7.68 z"
       id="path20"
       inkscape:connector-curvature="0"
       style="fill:#fdfdfd"
       inkscape:export-filename="C:\Users\patrick\Documents\Nervous_Mosgap\documentation\graphic resources\Logo_Draft\V2\path4070-95.png"
       inkscape:export-xdpi="1011.71"
       inkscape:export-ydpi="1011.71" />
    <path
       style="fill:#f15f18;fill-opacity:1"
       inkscape:connector-curvature="0"
       d="m 22.765172,53.987469 c -0.395471,-1.16545 -1.366248,-1.8387 -2.565032,-1.46662 -0.06163,0.0188 -0.09626,0.0312 -0.05757,0.15775 l 0.646979,2.07525 1.858377,-0.57102 c 0.194024,-0.0647 0.138691,-0.12428 0.117245,-0.19536 z"
       id="path3022"
       inkscape:export-filename="C:\Users\patrick\Documents\Nervous_Mosgap\documentation\graphic resources\Logo_Draft\V2\path4070-95.png"
       inkscape:export-xdpi="1011.71"
       inkscape:export-ydpi="1011.71" />
    <path
       style="fill:#f15f18;fill-opacity:1"
       inkscape:connector-curvature="0"
       d="m 25.376718,53.416109 c -0.881086,-2.85027 -3.689486,-4.46735 -6.278076,-3.60668 -0.06103,0.02 -0.09416,0.0914 -0.07331,0.15889 l 0.449919,1.4927 c 0.02025,0.0671 0.08593,0.10515 0.146951,0.0851 1.733773,-0.57637 3.615936,0.51344 4.194082,2.43027 0.01965,0.0667 0.08622,0.10533 0.146951,0.0851 l 1.351272,-0.44899 0.0048,-0.002 c 0.06163,-0.0205 0.09491,-0.0922 0.07436,-0.15869 l -0.01695,-0.0357 z"
       id="path3024"
       inkscape:export-filename="C:\Users\patrick\Documents\Nervous_Mosgap\documentation\graphic resources\Logo_Draft\V2\path4070-95.png"
       inkscape:export-xdpi="1011.71"
       inkscape:export-ydpi="1011.71" />
    <path
       style="fill:#f15f18;fill-opacity:1"
       inkscape:connector-curvature="0"
       d="m 27.7362,52.673669 -0.0177,-0.0357 c -1.311511,-4.27836 -5.521036,-6.70569 -9.401071,-5.41672 -0.06073,0.0202 -0.09371,0.0913 -0.07316,0.16021 l 0.463116,1.53479 c 0.02055,0.0681 0.08652,0.10551 0.147251,0.0853 3.004526,-0.9986 6.263076,0.8908 7.264594,4.20991 0.0198,0.0664 0.08622,0.10532 0.1468,0.0855 l 1.389359,-0.4622 0.0058,-0.002 c 0.06088,-0.0205 0.09536,-0.0924 0.07496,-0.15916 z"
       id="path3026"
       inkscape:export-filename="C:\Users\patrick\Documents\Nervous_Mosgap\documentation\graphic resources\Logo_Draft\V2\path4070-95.png"
       inkscape:export-xdpi="1011.71"
       inkscape:export-ydpi="1011.71" />
    <path
       style="fill:#f15f18;fill-opacity:1"
       inkscape:connector-curvature="0"
       d="m 30.15656,51.907719 -0.0177,-0.0357 c -1.724642,-6.4076 -6.653034,-8.31154 -12.596125,-7.14187 -0.06076,0.0202 -0.09371,0.0913 -0.07316,0.1602 l 0.440872,1.46017 c 0.02055,0.0681 0.08652,0.1055 0.14725,0.0853 5.126636,-1.52284 9.478732,1.61012 10.378661,6.01778 0.0198,0.0664 0.08622,0.10533 0.1468,0.0855 l 1.492595,-0.47029 0.0058,-0.002 c 0.06088,-0.0205 0.09536,-0.0924 0.07496,-0.15916 z"
       id="path3026-6"
       sodipodi:nodetypes="cccccccccccc"
       inkscape:export-filename="C:\Users\patrick\Documents\Nervous_Mosgap\documentation\graphic resources\Logo_Draft\V2\path4070-95.png"
       inkscape:export-xdpi="1011.71"
       inkscape:export-ydpi="1011.71" />
    <path
       d="m 113.32938,52.281389 4.84154,0 c -0.11224,0.49571 -0.22635,1.07169 -0.33859,1.5674 2.2,-1.34999 5.9027,-3.0774 7.3927,0.0526 0.86472,1.7833 -1.06,8.49 -1.77,12.78 -1.55,0.01 -3.1,0 -4.65,0 0.62,-3.4 1.62,-6.56 1.85,-10.02 -1.13,-1.37 -2.81,-0.08 -3.51,1.05 -1.03,2.96 -1.34,5.91 -1.99,8.97 -1.54,0 -3.15301,0 -4.69301,0 1,-4.85 2.08736,-9.51 2.86736,-14.4 z"
       id="path6-8"
       inkscape:connector-curvature="0"
       style="fill:#f15f18"
       sodipodi:nodetypes="ccccccccccc"
       inkscape:export-filename="C:\Users\patrick\Documents\Nervous_Mosgap\documentation\graphic resources\Logo_Draft\V2\path4070-95.png"
       inkscape:export-xdpi="1011.71"
       inkscape:export-ydpi="1011.71" />
    <path
       d="m 133.61503,52.427829 c 2.15,-0.81 5.04,-0.41 6.25,1.73 1.3,2.13 0.38,4.63 -0.05,6.86 -2.78,-0.04 -5.57,-0.01 -8.35,0.18 1.33,2.3 3.81,2.62 6.16,1.83 0.51,0.98 1.01,1.96 1.52,2.94 -3.26,0.97 -7.51,2.2 -10.1,-0.81 -3.46,-4.33 -0.44,-11.2 4.57,-12.73 z"
       id="path8-1"
       style="fill:#f15f18;fill-opacity:1"
       inkscape:connector-curvature="0"
       inkscape:export-filename="C:\Users\patrick\Documents\Nervous_Mosgap\documentation\graphic resources\Logo_Draft\V2\path4070-95.png"
       inkscape:export-xdpi="1011.71"
       inkscape:export-ydpi="1011.71" />
    <path
       style="fill:#fdfdfd"
       inkscape:connector-curvature="0"
       d="m 131.97503,58.141389 c 1.15,-1.35 2.54,-2.48 4.38,-2.65 0.17,0.91 0.33,1.81 0.49,2.72 -1.63,-0.01 -3.25,-0.03 -4.87,-0.07 z"
       id="path18-2"
       inkscape:export-filename="C:\Users\patrick\Documents\Nervous_Mosgap\documentation\graphic resources\Logo_Draft\V2\path4070-95.png"
       inkscape:export-xdpi="1011.71"
       inkscape:export-ydpi="1011.71" />
    <path
       style="fill:#f15f18;fill-opacity:1"
       inkscape:connector-curvature="0"
       d="m 124.91517,53.987479 c -0.39547,-1.16546 -1.36625,-1.83871 -2.56503,-1.46663 -0.0616,0.0188 -0.0963,0.0312 -0.0576,0.15776 l 0.64698,2.07524 1.85837,-0.57101 c 0.19403,-0.0647 0.1387,-0.12429 0.11725,-0.19536 z"
       id="path3022-1"
       inkscape:export-filename="C:\Users\patrick\Documents\Nervous_Mosgap\documentation\graphic resources\Logo_Draft\V2\path4070-95.png"
       inkscape:export-xdpi="1011.71"
       inkscape:export-ydpi="1011.71" />
    <path
       d="m 42.255032,52.361379 c 1.25,0 2.909778,0.01 4.149778,0.02 -0.139385,0.7 -0.411721,2.06768 -0.559533,2.81 1.321256,-2.12664 3.476091,-2.58681 5.606392,-2.78209 -0.191217,0.9603 -0.683528,3.43271 -0.771019,3.87209 -1.549973,-0.065 -4.035618,-0.71 -5.125618,2.08 -0.9,2.76 -1.461519,5.65 -2.031519,8.49 -1.56,0.03 -2.638481,0.07 -4.188481,0.11 0.97,-4.87 1.81,-9.76 2.92,-14.6 z"
       id="path4070"
       inkscape:connector-curvature="0"
       style="fill:#f15f18"
       sodipodi:nodetypes="ccccccccc"
       inkscape:export-xdpi="1011.71"
       inkscape:export-ydpi="1011.71" />
    <path
       d="m 143.56478,52.361379 c 1.25,0 2.90978,0.01 4.14978,0.02 -0.13939,0.7 -0.97512,4.95584 -1.22677,6.28521 l 4.15779,-0.15 -0.81168,2.71838 c -2.22815,0 -3.77155,0.26252 -4.05905,1.35 -0.9257,2.38814 1.96733,1.70367 3.30652,1.71524 l -0.67029,2.57843 c -9.42447,0.78686 -7.35604,-2.57727 -4.84604,-14.51727 z"
       id="path4070-9"
       inkscape:connector-curvature="0"
       style="fill:#f15f18"
       sodipodi:nodetypes="cccccccccc"
       inkscape:export-xdpi="1011.71"
       inkscape:export-ydpi="1011.71" />
  </g>
</svg>
