<?xml version="1.0" encoding="UTF-8" standalone="no"?>
<svg
   xmlns:dc="http://purl.org/dc/elements/1.1/"
   xmlns:cc="http://creativecommons.org/ns#"
   xmlns:rdf="http://www.w3.org/1999/02/22-rdf-syntax-ns#"
   xmlns:svg="http://www.w3.org/2000/svg"
   xmlns="http://www.w3.org/2000/svg"
   xmlns:sodipodi="http://sodipodi.sourceforge.net/DTD/sodipodi-0.dtd"
   xmlns:inkscape="http://www.inkscape.org/namespaces/inkscape"
   width="200"
   height="150"
   viewBox="0 0 160 120"
   version="1.1"
   id="svg2"
   inkscape:version="0.48.5 r10040"
   sodipodi:docname="Schriftzug1.svg"
   inkscape:export-filename="C:\Users\patrick\Documents\Nervous_Mosgap\documentation\graphic resources\Logo_Draft\V2\Schriftzug1.png"
   inkscape:export-xdpi="90"
   inkscape:export-ydpi="90">
  <metadata
     id="metadata26">
    <rdf:RDF>
      <cc:Work
         rdf:about="">
        <dc:format>image/svg+xml</dc:format>
        <dc:type
           rdf:resource="http://purl.org/dc/dcmitype/StillImage" />
        <dc:title></dc:title>
      </cc:Work>
    </rdf:RDF>
  </metadata>
  <defs
     id="defs24" />
  <sodipodi:namedview
     pagecolor="#ffffff"
     bordercolor="#666666"
     borderopacity="1"
     objecttolerance="10"
     gridtolerance="10"
     guidetolerance="10"
     inkscape:pageopacity="0"
     inkscape:pageshadow="2"
     inkscape:window-width="1858"
     inkscape:window-height="1057"
     id="namedview22"
     showgrid="false"
     inkscape:snap-midpoints="false"
     inkscape:zoom="2"
     inkscape:cx="-110.67861"
     inkscape:cy="106.40057"
     inkscape:window-x="-8"
     inkscape:window-y="-8"
     inkscape:window-maximized="1"
     inkscape:current-layer="svg2"
     inkscape:object-nodes="true"
     showguides="false"
     inkscape:snap-nodes="false">
    <inkscape:grid
       type="xygrid"
       id="grid3003"
       empspacing="5"
       visible="true"
       enabled="true"
       snapvisiblegridlinesonly="true" />
    <sodipodi:guide
       position="189.8125,85.8125"
       orientation="-28.349802,5.6450719"
       id="guide3019" />
    <sodipodi:guide
       position="24.494059,86"
       orientation="-13.791952,-4.2415163"
       id="guide4005" />
    <sodipodi:guide
       position="30.617574,79.71805"
       orientation="-2.865131,9.016735"
       id="guide4009" />
    <sodipodi:guide
       position="194.5625,85.84375"
       orientation="-1.381068,0"
       id="guide5020" />
  </sodipodi:namedview>
  <path
     d="m 12.02435,54.4 4.84154,0 c -0.112237,0.495711 -0.22635,1.071696 -0.338589,1.567407 C 18.727301,54.617415 22.43,52.89 23.92,56.02 c 0.864716,1.783293 -1.06,8.49 -1.77,12.78 -1.55,0.01 -3.1,0 -4.65,0 0.62,-3.4 1.62,-6.56 1.85,-10.02 -1.13,-1.37 -2.81,-0.08 -3.51,1.05 -1.03,2.96 -1.34,5.91 -1.99,8.97 -1.54,0 -3.153008,0 -4.6930085,0 C 10.156992,63.95 11.24435,59.29 12.02435,54.4 z"
     id="path6"
     inkscape:connector-curvature="0"
     style="fill:#f15f18"
     sodipodi:nodetypes="ccccccccccc" />
  <path
     d="m 32.31,54.546441 c 2.15,-0.81 5.04,-0.41 6.25,1.73 1.3,2.13 0.38,4.63 -0.05,6.86 -2.78,-0.04 -5.57,-0.01 -8.35,0.18 1.33,2.3 3.81,2.62 6.16,1.83 0.51,0.98 1.01,1.96 1.52,2.94 -3.26,0.97 -7.51,2.2 -10.1,-0.81 -3.46,-4.33 -0.44,-11.2 4.57,-12.73 z"
     id="path8"
     style="fill:#f15f18;fill-opacity:1"
     inkscape:connector-curvature="0" />
  <path
     d="m 52.803079,54.528259 5.106921,0.0017 c 0.14,3.75 0.27,7.5 0.34,11.25 1.57,-3.76 3.17,-7.5 4.76,-11.24 1.5,-0.04 3.01,-0.06 4.52,-0.07 -2.39,4.85 -4.82,9.67 -7.24,14.5 -1.8,0.03 -3.61,0.06 -5.41,0.11 z"
     id="path10"
     inkscape:connector-curvature="0"
     style="fill:#f15f18"
     sodipodi:nodetypes="cccccccc" />
  <path
     d="m 73.35,54.6 c 4.05,-1.77 8.79,2.06 7.8,6.4 0.06,5.67 -7.13,10.83 -11.98,6.87 -3.92,-4.1 -1.06,-11.79 4.18,-13.27 z"
     id="path12"
     inkscape:connector-curvature="0"
     style="fill:#f15f18" />
  <path
     d="m 93.02,54.43 c 1.56,0.01 3.13,0.01 4.69,0.03 -0.92,4.85 -1.93,9.69 -2.84,14.55 -1.26,-0.03 -3.121041,-0.05 -4.381041,-0.08 L 90.71,67.33 c -1.97,1.99 -6.68,3.23 -7.61,-0.36 -0.28,-4.24 1.14,-8.36 1.85,-12.5 1.55,0 3.09,0.01 4.64,0.02 -0.76,3.66 -1.52,7.33 -1.96,11.05 -0.168858,0.938858 3.293883,0.16066 3.6,-1.36 0.54,-3.26 1.16,-6.5 1.79,-9.75 z"
     id="path14"
     inkscape:connector-curvature="0"
     style="fill:#f15f18"
     sodipodi:nodetypes="ccccccccccc" />
  <path
     d="m 100.17,57.19 c 2.01,-4.02 7.46,-3.38 10.46,-0.89 -0.8,0.74 -1.6,1.46 -2.4,2.19 -1.57,-0.38 -3.70033,-1.988858 -4.79,-0.69 -0.57597,0.805406 3.5,2.97 5.14,4.58 1.86,2.74 -0.63,6.31 -3.62,6.68 -2.8,0.87 -5.32,-0.75 -7.34,-2.5 0.64,-0.51 1.92,-1.52 2.56,-2.03 1.63,0.96 4.14782,2.774594 5.23,0.77 0.84199,-1.554314 -7.16,-4.14 -5.24,-8.11 z"
     id="path16"
     inkscape:connector-curvature="0"
     style="fill:#f15f18"
     sodipodi:nodetypes="cccccccccc" />
  <path
     d="m 30.67,60.26 c 1.15,-1.35 2.54,-2.48 4.38,-2.65 0.17,0.91 0.33,1.81 0.49,2.72 -1.63,-0.01 -3.25,-0.03 -4.87,-0.07 z"
     id="path18"
     inkscape:connector-curvature="0"
     style="fill:#fdfdfd" />
  <path
     d="m 74.1,58.06 c 2.67,-0.92 2.55,2.17 2.32,3.93 -0.23,1.86 -1.43,3.66 -3.46,3.75 -1.72,-2.28 -1.11,-5.97 1.14,-7.68 z"
     id="path20"
     inkscape:connector-curvature="0"
     style="fill:#fdfdfd" />
  <path
     style="fill:#f15f18;fill-opacity:1"
     inkscape:connector-curvature="0"
     d="m 23.61014,56.106093 c -0.39547,-1.165456 -1.366248,-1.838709 -2.565032,-1.466629 -0.06163,0.01884 -0.09626,0.03117 -0.05757,0.157756 l 0.646979,2.075245 1.858377,-0.571014 c 0.194024,-0.06474 0.138691,-0.124284 0.117245,-0.195358 z"
     id="path3022" />
  <path
     style="fill:#f15f18;fill-opacity:1"
     inkscape:connector-curvature="0"
     d="M 26.221687,55.53473 C 25.3406,52.684456 22.5322,51.067374 19.943611,51.928049 c -0.06103,0.02 -0.09416,0.09144 -0.07331,0.158887 l 0.449919,1.492702 c 0.02025,0.0671 0.08593,0.105155 0.146951,0.08515 1.733773,-0.576367 3.615936,0.513439 4.194082,2.430273 0.01965,0.06675 0.08622,0.105329 0.146951,0.08515 l 1.351272,-0.448997 0.0048,-0.0021 c 0.06163,-0.02048 0.09491,-0.09224 0.07436,-0.158688 l -0.01695,-0.03566 z"
     id="path3024" />
  <path
     style="fill:#f15f18;fill-opacity:1"
     inkscape:connector-curvature="0"
     d="m 28.581168,54.79229 -0.0177,-0.03568 c -1.31151,-4.278364 -5.521036,-6.705693 -9.401071,-5.41672 -0.06073,0.02018 -0.09371,0.09129 -0.07316,0.160204 l 0.463117,1.534799 c 0.02055,0.06809 0.08652,0.105503 0.14725,0.08532 3.004527,-0.998609 6.263076,0.890797 7.264595,4.209901 0.0198,0.06643 0.08622,0.105329 0.1468,0.08547 l 1.389358,-0.462198 0.0058,-0.0019 c 0.06088,-0.0205 0.09536,-0.09239 0.07496,-0.159161 z"
     id="path3026" />
  <g
     style="fill:#f15f18;fill-opacity:1"
     id="g3028"
     transform="matrix(0.55355107,0.04798827,-0.04798827,0.55355107,20.008222,43.002484)">
</g>
  <g
     style="fill:#f15f18;fill-opacity:1"
     id="g3030"
     transform="matrix(0.55355107,0.04798827,-0.04798827,0.55355107,20.008222,43.002484)">
</g>
  <g
     style="fill:#f15f18;fill-opacity:1"
     id="g3032"
     transform="matrix(0.55355107,0.04798827,-0.04798827,0.55355107,20.008222,43.002484)">
</g>
  <g
     style="fill:#f15f18;fill-opacity:1"
     id="g3034"
     transform="matrix(0.55355107,0.04798827,-0.04798827,0.55355107,20.008222,43.002484)">
</g>
  <g
     style="fill:#f15f18;fill-opacity:1"
     id="g3036"
     transform="matrix(0.55355107,0.04798827,-0.04798827,0.55355107,20.008222,43.002484)">
</g>
  <g
     style="fill:#f15f18;fill-opacity:1"
     id="g3038"
     transform="matrix(0.55355107,0.04798827,-0.04798827,0.55355107,20.008222,43.002484)">
</g>
  <g
     style="fill:#f15f18;fill-opacity:1"
     id="g3040"
     transform="matrix(0.55355107,0.04798827,-0.04798827,0.55355107,20.008222,43.002484)">
</g>
  <g
     style="fill:#f15f18;fill-opacity:1"
     id="g3042"
     transform="matrix(0.55355107,0.04798827,-0.04798827,0.55355107,20.008222,43.002484)">
</g>
  <g
     style="fill:#f15f18;fill-opacity:1"
     id="g3044"
     transform="matrix(0.55355107,0.04798827,-0.04798827,0.55355107,20.008222,43.002484)">
</g>
  <g
     style="fill:#f15f18;fill-opacity:1"
     id="g3046"
     transform="matrix(0.55355107,0.04798827,-0.04798827,0.55355107,20.008222,43.002484)">
</g>
  <g
     style="fill:#f15f18;fill-opacity:1"
     id="g3048"
     transform="matrix(0.55355107,0.04798827,-0.04798827,0.55355107,20.008222,43.002484)">
</g>
  <g
     style="fill:#f15f18;fill-opacity:1"
     id="g3050"
     transform="matrix(0.55355107,0.04798827,-0.04798827,0.55355107,20.008222,43.002484)">
</g>
  <g
     style="fill:#f15f18;fill-opacity:1"
     id="g3052"
     transform="matrix(0.55355107,0.04798827,-0.04798827,0.55355107,20.008222,43.002484)">
</g>
  <g
     style="fill:#f15f18;fill-opacity:1"
     id="g3054"
     transform="matrix(0.55355107,0.04798827,-0.04798827,0.55355107,20.008222,43.002484)">
</g>
  <g
     style="fill:#f15f18;fill-opacity:1"
     id="g3056"
     transform="matrix(0.55355107,0.04798827,-0.04798827,0.55355107,20.008222,43.002484)">
</g>
  <path
     style="fill:#f15f18;fill-opacity:1"
     inkscape:connector-curvature="0"
     d="m 31.001528,54.026339 -0.0177,-0.03568 c -1.724641,-6.407602 -6.653033,-8.311541 -12.596124,-7.141872 -0.06076,0.02016 -0.09371,0.09129 -0.07316,0.160204 l 0.440872,1.460167 c 0.02055,0.06809 0.08652,0.105503 0.14725,0.08532 5.126635,-1.522836 9.478732,1.610122 10.378661,6.017777 0.0198,0.06643 0.08622,0.105329 0.1468,0.08547 l 1.492594,-0.47029 0.0058,-0.0019 c 0.06088,-0.0205 0.09536,-0.09239 0.07496,-0.159161 z"
     id="path3026-6"
     sodipodi:nodetypes="cccccccccccc" />
  <path
     d="m 114.17435,54.400004 4.84154,0 c -0.11224,0.495711 -0.22635,1.071696 -0.33859,1.567406 2.2,-1.349991 5.9027,-3.077406 7.3927,0.05259 0.86472,1.783293 -1.06,8.49 -1.77,12.78 -1.55,0.01 -3.1,0 -4.65,0 0.62,-3.4 1.62,-6.56 1.85,-10.02 -1.13,-1.37 -2.81,-0.08 -3.51,1.05 -1.03,2.96 -1.34,5.91 -1.99,8.97 -1.54,0 -3.15301,0 -4.69301,0 1,-4.85 2.08736,-9.51 2.86736,-14.4 z"
     id="path6-8"
     inkscape:connector-curvature="0"
     style="fill:#f15f18"
     sodipodi:nodetypes="ccccccccccc" />
  <path
     d="m 134.46,54.546445 c 2.15,-0.81 5.04,-0.41 6.25,1.729999 1.3,2.13 0.38,4.63 -0.05,6.86 -2.78,-0.04 -5.57,-0.01 -8.35,0.18 1.33,2.3 3.81,2.62 6.16,1.83 0.51,0.98 1.01,1.96 1.52,2.94 -3.26,0.97 -7.51,2.2 -10.1,-0.81 -3.46,-4.33 -0.44,-11.2 4.57,-12.729999 z"
     id="path8-1"
     style="fill:#f15f18;fill-opacity:1"
     inkscape:connector-curvature="0" />
  <path
     style="fill:#fdfdfd"
     inkscape:connector-curvature="0"
     d="m 132.82,60.260004 c 1.15,-1.35 2.54,-2.48 4.38,-2.65 0.17,0.91 0.33,1.81 0.49,2.72 -1.63,-0.01 -3.25,-0.03 -4.87,-0.07 z"
     id="path18-2" />
  <path
     style="fill:#f15f18;fill-opacity:1"
     inkscape:connector-curvature="0"
     d="m 125.76014,56.106096 c -0.39547,-1.165455 -1.36625,-1.838708 -2.56503,-1.466628 -0.0616,0.01884 -0.0963,0.03117 -0.0576,0.157756 l 0.64698,2.075244 1.85837,-0.571014 c 0.19403,-0.06474 0.1387,-0.124284 0.11725,-0.195358 z"
     id="path3022-1" />
  <path
     d="m 43.1,54.48 c 1.25,0 2.909779,0.01 4.149779,0.02 -0.139386,0.7 -0.411721,2.067682 -0.559533,2.81 1.321256,-2.126643 3.47609,-2.586813 5.606391,-2.782087 C 52.10542,55.488213 51.613109,57.960621 51.525619,58.4 49.975645,58.334996 47.49,57.69 46.4,60.48 45.5,63.24 44.938482,66.13 44.368482,68.97 42.808482,69 41.73,69.04 40.18,69.08 c 0.97,-4.87 1.81,-9.76 2.92,-14.6 z"
     id="path4070"
     inkscape:connector-curvature="0"
     style="fill:#f15f18"
     sodipodi:nodetypes="ccccccccc" />
  <path
     d="m 144.40975,54.48 c 1.25,0 2.90978,0.01 4.14978,0.02 -0.13939,0.7 -1.2519,5.905843 -1.50355,7.235213 0.14835,-0.97063 4.43457,-1.55 4.43457,-1.55 l -0.81168,3.168374 c -2.22815,1e-6 -3.77155,0.26252 -4.05905,1.35 -0.42717,2.145246 -0.37115,1.746566 -0.94115,4.586566 l -4.18866,0 c 0.97,-4.87 1.81,-9.970165 2.92,-14.810165 z"
     id="path4070-9"
     inkscape:connector-curvature="0"
     style="fill:#f15f18"
     sodipodi:nodetypes="cccccccccc" />
</svg>
