<?xml version="1.0" encoding="UTF-8" standalone="no"?>
<svg
   xmlns:dc="http://purl.org/dc/elements/1.1/"
   xmlns:cc="http://creativecommons.org/ns#"
   xmlns:rdf="http://www.w3.org/1999/02/22-rdf-syntax-ns#"
   xmlns:svg="http://www.w3.org/2000/svg"
   xmlns="http://www.w3.org/2000/svg"
   xmlns:sodipodi="http://sodipodi.sourceforge.net/DTD/sodipodi-0.dtd"
   xmlns:inkscape="http://www.inkscape.org/namespaces/inkscape"
   width="200"
   height="150"
   viewBox="0 0 160 120"
   version="1.1"
   id="svg2"
   inkscape:version="0.48.5 r10040"
   sodipodi:docname="Schriftzug6.svg"
   inkscape:export-filename="C:\Users\cpcrasher\Documents\Nervous_Mosgap\documentation\graphic resources\Logo_Draft\V2\Schriftzug6.png"
   inkscape:export-xdpi="900"
   inkscape:export-ydpi="900"
   inkscape:label="Nervous">
  <metadata
     id="metadata26">
    <rdf:RDF>
      <cc:Work
         rdf:about="">
        <dc:format>image/svg+xml</dc:format>
        <dc:type
           rdf:resource="http://purl.org/dc/dcmitype/StillImage" />
        <dc:title />
      </cc:Work>
    </rdf:RDF>
  </metadata>
  <defs
     id="defs24">
    <marker
       inkscape:stockid="DotL"
       orient="auto"
       refY="0.0"
       refX="0.0"
       id="DotL"
       style="overflow:visible">
      <path
         id="path5327"
         d="M -2.5,-1.0 C -2.5,1.7600000 -4.7400000,4.0 -7.5,4.0 C -10.260000,4.0 -12.5,1.7600000 -12.5,-1.0 C -12.5,-3.7600000 -10.260000,-6.0 -7.5,-6.0 C -4.7400000,-6.0 -2.5,-3.7600000 -2.5,-1.0 z "
         style="fill-rule:evenodd;stroke:#000000;stroke-width:1.0pt"
         transform="scale(0.8) translate(7.4, 1)" />
    </marker>
  </defs>
  <sodipodi:namedview
     pagecolor="#ffffff"
     bordercolor="#666666"
     borderopacity="1"
     objecttolerance="10"
     gridtolerance="10"
     guidetolerance="10"
     inkscape:pageopacity="0"
     inkscape:pageshadow="2"
     inkscape:window-width="1474"
     inkscape:window-height="841"
     id="namedview22"
     showgrid="false"
     inkscape:snap-midpoints="false"
     inkscape:zoom="4"
     inkscape:cx="89.043627"
     inkscape:cy="99.167695"
     inkscape:window-x="-8"
     inkscape:window-y="-8"
     inkscape:window-maximized="1"
     inkscape:current-layer="layer3"
     inkscape:object-nodes="true"
     showguides="true"
     inkscape:snap-nodes="false">
    <inkscape:grid
       type="xygrid"
       id="grid3003"
       empspacing="5"
       visible="true"
       enabled="true"
       snapvisiblegridlinesonly="true" />
    <sodipodi:guide
       position="187.58514,94.520674"
       orientation="-28.349802,5.6450719"
       id="guide3019" />
    <sodipodi:guide
       position="24.494059,86"
       orientation="-13.791952,-4.2415163"
       id="guide4005" />
    <sodipodi:guide
       position="30.617574,79.71805"
       orientation="-2.865131,9.016735"
       id="guide4009" />
    <sodipodi:guide
       position="194.5625,85.84375"
       orientation="-1.381068,0"
       id="guide5020" />
    <sodipodi:guide
       position="45.696776,94.531338"
       orientation="0,1"
       id="guide3041" />
    <sodipodi:guide
       position="72.61143,66.437827"
       orientation="0,1"
       id="guide3045" />
  </sodipodi:namedview>
  <g
     inkscape:groupmode="layer"
     id="layer2"
     inkscape:label="Graph#1"
     style="display:inline"
     sodipodi:insensitive="true">
    <path
       inkscape:export-ydpi="1011.71"
       inkscape:export-xdpi="1011.71"
       inkscape:export-filename="C:\Users\patrick\Documents\Nervous_Mosgap\documentation\graphic resources\Logo_Draft\V2\path4070-95.png"
       style="fill:none;stroke:#c3c3c3;stroke-width:1.60000002;stroke-linejoin:round;stroke-miterlimit:4;stroke-opacity:1;stroke-dasharray:none"
       inkscape:connector-curvature="0"
       id="path5102"
       d="m 34.380596,75.458238 c 4.686397,-1.34574 7.941473,1.91858 7.800001,6.4 -0.293553,5.81142 -7.130001,10.830001 -11.980001,6.87 -3.92,-4.1 -1.06,-11.43645 4.18,-13.27 z"
       sodipodi:nodetypes="cccc" />
    <path
       style="fill:none;stroke:#c3c3c3;stroke-width:1.60000002;stroke-linecap:butt;stroke-linejoin:miter;stroke-miterlimit:4;stroke-opacity:1;stroke-dasharray:none"
       d="m 41.454984,85.885528 30.72864,17.341432"
       id="path5104"
       inkscape:connector-curvature="0"
       sodipodi:nodetypes="cc" />
    <path
       sodipodi:nodetypes="cccc"
       d="m 77.134209,100.54108 c 4.686394,-1.345732 7.941474,1.91858 7.800004,6.4 -0.29356,5.81142 -7.130004,10.83 -11.98,6.87 -3.920001,-4.1 -1.06,-11.43644 4.179996,-13.27 z"
       id="path5106"
       inkscape:connector-curvature="0"
       style="fill:none;stroke:#c3c3c3;stroke-width:1.60000002;stroke-linejoin:round;stroke-miterlimit:4;stroke-opacity:1;stroke-dasharray:none"
       inkscape:export-filename="C:\Users\patrick\Documents\Nervous_Mosgap\documentation\graphic resources\Logo_Draft\V2\path4070-95.png"
       inkscape:export-xdpi="1011.71"
       inkscape:export-ydpi="1011.71" />
    <path
       inkscape:export-ydpi="1011.71"
       inkscape:export-xdpi="1011.71"
       inkscape:export-filename="C:\Users\patrick\Documents\Nervous_Mosgap\documentation\graphic resources\Logo_Draft\V2\path4070-95.png"
       style="fill:none;stroke:#c3c3c3;stroke-width:1.60000002;stroke-linejoin:round;stroke-miterlimit:4;stroke-opacity:1;stroke-dasharray:none"
       inkscape:connector-curvature="0"
       id="path5252"
       d="m 146.13421,66.741078 c 4.68639,-1.34573 7.94147,1.91858 7.8,6.4 -0.29356,5.81142 -7.13,10.830001 -11.98,6.87 -3.92,-4.1 -1.06,-11.43644 4.18,-13.27 z"
       sodipodi:nodetypes="cccc" />
    <path
       sodipodi:nodetypes="cc"
       inkscape:connector-curvature="0"
       id="path5254"
       d="m 111.0824,90.512947 -9.1262,-43.11341"
       style="fill:none;stroke:#c3c3c3;stroke-width:1.60000002;stroke-linecap:butt;stroke-linejoin:miter;stroke-miterlimit:4;stroke-opacity:1;stroke-dasharray:none" />
    <path
       inkscape:export-ydpi="1011.71"
       inkscape:export-xdpi="1011.71"
       inkscape:export-filename="C:\Users\patrick\Documents\Nervous_Mosgap\documentation\graphic resources\Logo_Draft\V2\path4070-95.png"
       style="fill:none;stroke:#c3c3c3;stroke-width:1.60000002;stroke-linejoin:round;stroke-miterlimit:4;stroke-opacity:1;stroke-dasharray:none"
       inkscape:connector-curvature="0"
       id="path5256"
       d="m 99.73421,33.541078 c 4.68639,-1.34573 7.94147,1.91858 7.8,6.4 -0.29356,5.81142 -7.13,10.830001 -11.979997,6.87 -3.920001,-4.1 -1.06,-11.43644 4.179997,-13.27 z"
       sodipodi:nodetypes="cccc" />
    <path
       sodipodi:nodetypes="cc"
       inkscape:connector-curvature="0"
       id="path5258"
       d="m 40.654984,76.885528 53.92864,-32.05857"
       style="fill:none;stroke:#c3c3c3;stroke-width:1.60000002;stroke-linecap:butt;stroke-linejoin:miter;stroke-miterlimit:4;stroke-opacity:1;stroke-dasharray:none;marker-start:none;marker-mid:none" />
    <path
       style="fill:none;stroke:#c3c3c3;stroke-width:1.60000002;stroke-linecap:butt;stroke-linejoin:miter;stroke-miterlimit:4;stroke-opacity:1;stroke-dasharray:none"
       d="m 106.85498,43.285528 35.12864,26.74143"
       id="path5260"
       inkscape:connector-curvature="0"
       sodipodi:nodetypes="cc" />
    <path
       sodipodi:nodetypes="cccc"
       d="m 51.33421,19.541078 c 4.68639,-1.34573 7.94147,1.91858 7.8,6.4 -0.29356,5.81142 -7.13,10.830001 -11.98,6.87 -3.92,-4.1 -1.06,-11.43644 4.18,-13.27 z"
       id="path6070"
       inkscape:connector-curvature="0"
       style="fill:none;stroke:#c3c3c3;stroke-width:1.60000002;stroke-linejoin:round;stroke-miterlimit:4;stroke-opacity:1;stroke-dasharray:none"
       inkscape:export-filename="C:\Users\patrick\Documents\Nervous_Mosgap\documentation\graphic resources\Logo_Draft\V2\path4070-95.png"
       inkscape:export-xdpi="1011.71"
       inkscape:export-ydpi="1011.71" />
    <path
       sodipodi:nodetypes="cc"
       inkscape:connector-curvature="0"
       id="path6072"
       d="m 58.05498,27.685528 36.32864,9.94143"
       style="fill:none;stroke:#c3c3c3;stroke-width:1.60000002;stroke-linecap:butt;stroke-linejoin:miter;stroke-miterlimit:4;stroke-opacity:1;stroke-dasharray:none" />
    <path
       inkscape:export-ydpi="1011.71"
       inkscape:export-xdpi="1011.71"
       inkscape:export-filename="C:\Users\patrick\Documents\Nervous_Mosgap\documentation\graphic resources\Logo_Draft\V2\path4070-95.png"
       style="fill:none;stroke:#c3c3c3;stroke-width:1.60000002;stroke-linejoin:round;stroke-miterlimit:4;stroke-opacity:1;stroke-dasharray:none"
       inkscape:connector-curvature="0"
       id="path6074"
       d="m 112.33421,90.54108 c 4.68639,-1.345732 7.94147,1.91858 7.8,6.4 -0.29356,5.81142 -7.13,10.83 -11.98,6.87 -3.92,-4.1 -1.06,-11.43644 4.18,-13.27 z"
       sodipodi:nodetypes="cccc" />
    <path
       style="fill:none;stroke:#c3c3c3;stroke-width:1.60000002;stroke-linecap:butt;stroke-linejoin:miter;stroke-miterlimit:4;stroke-opacity:1;stroke-dasharray:none;marker-start:none;marker-mid:none"
       d="m 37.454984,74.085528 11.92864,-39.65857"
       id="path6076"
       inkscape:connector-curvature="0"
       sodipodi:nodetypes="cc" />
    <path
       style="fill:none;stroke:#c3c3c3;stroke-width:1.60000002;stroke-linecap:butt;stroke-linejoin:miter;stroke-miterlimit:4;stroke-opacity:1;stroke-dasharray:none"
       d="M 104.05498,33.285528 116.38362,0.42695798"
       id="path6078"
       inkscape:connector-curvature="0"
       sodipodi:nodetypes="cc" />
    <path
       style="fill:none;stroke:#c3c3c3;stroke-width:1.60000002;stroke-linecap:butt;stroke-linejoin:miter;stroke-miterlimit:4;stroke-opacity:1;stroke-dasharray:none"
       d="m 0.45498,29.285528 44.32864,-2.45857"
       id="path6080"
       inkscape:connector-curvature="0"
       sodipodi:nodetypes="cc" />
    <path
       style="fill:none;stroke:#c3c3c3;stroke-width:1.60000002;stroke-linecap:butt;stroke-linejoin:miter;stroke-miterlimit:4;stroke-opacity:1;stroke-dasharray:none;marker-start:none;marker-mid:none"
       d="M 1.854984,120.08553 30.583624,90.026958"
       id="path6082"
       inkscape:connector-curvature="0"
       sodipodi:nodetypes="cc" />
    <path
       sodipodi:nodetypes="cc"
       inkscape:connector-curvature="0"
       id="path6084"
       d="M 50.05498,19.685528 43.98362,-0.37304199"
       style="fill:none;stroke:#c3c3c3;stroke-width:1.60000002;stroke-linecap:butt;stroke-linejoin:miter;stroke-miterlimit:4;stroke-opacity:1;stroke-dasharray:none" />
  </g>
  <g
     style="fill:#f15f18;fill-opacity:1"
     id="g3028"
     transform="matrix(0.55355107,0.04798827,-0.04798827,0.55355107,20.008222,43.002484)" />
  <g
     style="fill:#f15f18;fill-opacity:1"
     id="g3030"
     transform="matrix(0.55355107,0.04798827,-0.04798827,0.55355107,20.008222,43.002484)" />
  <g
     style="fill:#f15f18;fill-opacity:1"
     id="g3032"
     transform="matrix(0.55355107,0.04798827,-0.04798827,0.55355107,20.008222,43.002484)" />
  <g
     style="fill:#f15f18;fill-opacity:1"
     id="g3034"
     transform="matrix(0.55355107,0.04798827,-0.04798827,0.55355107,20.008222,43.002484)" />
  <g
     style="fill:#f15f18;fill-opacity:1"
     id="g3036"
     transform="matrix(0.55355107,0.04798827,-0.04798827,0.55355107,20.008222,43.002484)" />
  <g
     style="fill:#f15f18;fill-opacity:1"
     id="g3038"
     transform="matrix(0.55355107,0.04798827,-0.04798827,0.55355107,20.008222,43.002484)" />
  <g
     style="fill:#f15f18;fill-opacity:1"
     id="g3040"
     transform="matrix(0.55355107,0.04798827,-0.04798827,0.55355107,20.008222,43.002484)" />
  <g
     style="fill:#f15f18;fill-opacity:1"
     id="g3042"
     transform="matrix(0.55355107,0.04798827,-0.04798827,0.55355107,20.008222,43.002484)" />
  <g
     style="fill:#f15f18;fill-opacity:1"
     id="g3044"
     transform="matrix(0.55355107,0.04798827,-0.04798827,0.55355107,20.008222,43.002484)" />
  <g
     style="fill:#f15f18;fill-opacity:1"
     id="g3046"
     transform="matrix(0.55355107,0.04798827,-0.04798827,0.55355107,20.008222,43.002484)" />
  <g
     style="fill:#f15f18;fill-opacity:1"
     id="g3048"
     transform="matrix(0.55355107,0.04798827,-0.04798827,0.55355107,20.008222,43.002484)" />
  <g
     style="fill:#f15f18;fill-opacity:1"
     id="g3050"
     transform="matrix(0.55355107,0.04798827,-0.04798827,0.55355107,20.008222,43.002484)" />
  <g
     style="fill:#f15f18;fill-opacity:1"
     id="g3052"
     transform="matrix(0.55355107,0.04798827,-0.04798827,0.55355107,20.008222,43.002484)" />
  <g
     style="fill:#f15f18;fill-opacity:1"
     id="g3054"
     transform="matrix(0.55355107,0.04798827,-0.04798827,0.55355107,20.008222,43.002484)" />
  <g
     style="fill:#f15f18;fill-opacity:1"
     id="g3056"
     transform="matrix(0.55355107,0.04798827,-0.04798827,0.55355107,20.008222,43.002484)" />
  <g
     inkscape:groupmode="layer"
     id="layer3"
     inkscape:label="Nervous"
     style="display:inline">
    <path
       d="m 11.179381,52.281379 4.84154,0 c -0.112237,0.49571 -0.22635,1.0717 -0.338589,1.56741 2.2,-1.34999 5.9027,-3.07741 7.3927,0.0526 0.864716,1.78329 -1.06,8.49 -1.77,12.78 -1.55,0.01 -3.100001,0 -4.650001,0 0.62,-3.4 1.62,-6.56 1.850001,-10.02 -1.130001,-1.37 -2.810001,-0.08 -3.510001,1.05 -1.03,2.96 -1.34,5.91 -1.99,8.97 -1.54,0 -3.1530083,0 -4.6930083,0 1,-4.85 2.0873583,-9.51 2.8673583,-14.4 z"
       id="path6"
       inkscape:connector-curvature="0"
       style="fill:#f15f18"
       sodipodi:nodetypes="ccccccccccc"
       inkscape:export-filename="C:\Users\cpcrasher\Documents\Nervous_Mosgap\documentation\graphic resources\Logo_Draft\V2\Schriftzug6.png"
       inkscape:export-xdpi="1011.71"
       inkscape:export-ydpi="1011.71" />
    <path
       style="fill:#f15f18;fill-opacity:1"
       d="m 33.175,52.206382 c -0.592187,0.04252 -1.1625,0.182167 -1.7,0.38256 -5.01,1.514081 -8.035,8.31402 -4.575,12.598971 2.59,2.978684 6.84,1.750532 10.1,0.790624 -0.51,-0.969804 -1.015,-1.937651 -1.525,-2.907455 -2.35,0.781781 -4.82,0.465288 -6.15,-1.810783 2.78,-0.188024 5.57,-0.218111 8.35,-0.178528 0.43,-2.2068 1.35,-4.676223 0.05,-6.784062 -0.9075,-1.588302 -2.773438,-2.218892 -4.55,-2.091327 z M 34.2,55.26686 c 0.17,0.928346 0.34,1.826087 0.5,2.754432 -1.63,-0.0102 -3.255,-0.0102 -4.875,-0.05101 1.15,-1.377216 2.535,-2.529996 4.375,-2.703424 z"
       id="path8"
       inkscape:connector-curvature="0"
       inkscape:export-filename="C:\Users\cpcrasher\Documents\Nervous_Mosgap\documentation\graphic resources\Logo_Draft\V2\Schriftzug6.png"
       inkscape:export-xdpi="1011.71"
       inkscape:export-ydpi="1011.71" />
    <path
       d="m 54.615826,52.163652 4.456922,0.002 -1.835736,8.801329 5.585735,-8.79116 4.656396,-0.07119 -9.389999,14.745107 c -1.8,0.0305 -4.596396,0.06101 -6.396396,0.11186 z"
       id="path10"
       inkscape:connector-curvature="0"
       style="fill:#f15f18"
       sodipodi:nodetypes="cccccccc"
       inkscape:export-filename="C:\Users\cpcrasher\Documents\Nervous_Mosgap\documentation\graphic resources\Logo_Draft\V2\Schriftzug6.png"
       inkscape:export-xdpi="1011.71"
       inkscape:export-ydpi="1011.71" />
    <path
       style="fill:#f15f18"
       d="m 74.825,52.138365 c -0.765571,-0.02816 -1.565625,0.09258 -2.325,0.422512 -5.24,1.471336 -8.095,9.121287 -4.175,13.197285 4.85,3.936817 12.035,-1.197946 11.975,-6.834752 0.804376,-3.505606 -2.157525,-6.663031 -5.475,-6.785045 z m -0.7,3.703193 c 1.762578,-8.15e-4 1.65125,2.545013 1.45,4.075998 -0.23,1.849111 -1.42,3.638573 -3.45,3.728046 -1.72,-2.266652 -1.125,-5.930079 1.125,-7.630068 0.33375,-0.114327 0.623203,-0.17386 0.875,-0.173976 z"
       id="path12"
       inkscape:connector-curvature="0"
       inkscape:export-filename="C:\Users\cpcrasher\Documents\Nervous_Mosgap\documentation\graphic resources\Logo_Draft\V2\Schriftzug6.png"
       inkscape:export-xdpi="1011.71"
       inkscape:export-ydpi="1011.71" />
    <path
       d="m 92.175031,52.142445 c 1.56,0.01011 3.13,0.01011 4.69,0.03034 -0.92,4.905266 -1.93,9.800418 -2.84,14.715799 -1.26,-0.03035 -3.12104,-0.05057 -4.38104,-0.08092 l 0.22104,-1.618232 c -1.969999,2.012676 -6.679999,3.266805 -7.609999,-0.364102 -0.280001,-4.288316 1.14,-8.455263 1.85,-12.642438 1.55,0 3.09,0.01011 4.639999,0.02023 -0.759999,3.701706 -1.519999,7.413525 -1.959999,11.175915 -0.168859,0.949558 3.293879,0.16249 3.599999,-1.375498 0.54,-3.297147 1.16,-6.574068 1.79,-9.861101 z"
       id="path14"
       inkscape:connector-curvature="0"
       style="fill:#f15f18"
       sodipodi:nodetypes="ccccccccccc"
       inkscape:export-filename="C:\Users\cpcrasher\Documents\Nervous_Mosgap\documentation\graphic resources\Logo_Draft\V2\Schriftzug6.png"
       inkscape:export-xdpi="1011.71"
       inkscape:export-ydpi="1011.71" />
    <path
       d="m 99.325031,55.071379 c 2.009999,-4.02 7.459999,-3.38 10.459999,-0.89 -0.8,0.74 -1.6,1.46 -2.4,2.19 -1.57,-0.38 -2.75135,-1.524379 -3.8036,-0.195025 -0.61455,0.776378 2.5136,2.475025 4.1536,4.085025 1.86,2.74 -0.63,6.31 -3.62,6.68 -2.8,0.87 -5.319999,-0.75 -7.339999,-2.5 0.64,-0.51 1.92,-2.085685 2.56,-2.595685 1.629999,0.96 3.236419,2.7746 4.318599,0.77 0.84199,-1.55431 -6.248599,-3.574315 -4.328599,-7.544315 z"
       id="path16"
       inkscape:connector-curvature="0"
       style="fill:#f15f18"
       sodipodi:nodetypes="cccscccccc"
       inkscape:export-filename="C:\Users\cpcrasher\Documents\Nervous_Mosgap\documentation\graphic resources\Logo_Draft\V2\Schriftzug6.png"
       inkscape:export-xdpi="1011.71"
       inkscape:export-ydpi="1011.71" />
    <path
       style="fill:#f15f18;fill-opacity:1"
       inkscape:connector-curvature="0"
       d="m 22.765172,53.987469 c -0.395471,-1.16545 -1.366248,-1.8387 -2.565032,-1.46662 -0.06163,0.0188 -0.09626,0.0312 -0.05757,0.15775 l 0.646979,2.07525 1.858377,-0.57102 c 0.194024,-0.0647 0.138691,-0.12428 0.117245,-0.19536 z"
       id="path3022"
       inkscape:export-filename="C:\Users\cpcrasher\Documents\Nervous_Mosgap\documentation\graphic resources\Logo_Draft\V2\Schriftzug6.png"
       inkscape:export-xdpi="1011.71"
       inkscape:export-ydpi="1011.71" />
    <path
       style="fill:#f15f18;fill-opacity:1"
       inkscape:connector-curvature="0"
       d="m 25.376718,53.416109 c -0.881086,-2.85027 -3.689486,-4.46735 -6.278076,-3.60668 -0.06103,0.02 -0.09416,0.0914 -0.07331,0.15889 l 0.449919,1.4927 c 0.02025,0.0671 0.08593,0.10515 0.146951,0.0851 1.733773,-0.57637 3.615936,0.51344 4.194082,2.43027 0.01965,0.0667 0.08622,0.10533 0.146951,0.0851 l 1.351272,-0.44899 0.0048,-0.002 c 0.06163,-0.0205 0.09491,-0.0922 0.07436,-0.15869 l -0.01695,-0.0357 z"
       id="path3024"
       inkscape:export-filename="C:\Users\cpcrasher\Documents\Nervous_Mosgap\documentation\graphic resources\Logo_Draft\V2\Schriftzug6.png"
       inkscape:export-xdpi="1011.71"
       inkscape:export-ydpi="1011.71" />
    <path
       style="fill:#f15f18;fill-opacity:1"
       inkscape:connector-curvature="0"
       d="m 27.7362,52.673669 -0.0177,-0.0357 c -1.311511,-4.27836 -5.521036,-6.70569 -9.401071,-5.41672 -0.06073,0.0202 -0.09371,0.0913 -0.07316,0.16021 l 0.463116,1.53479 c 0.02055,0.0681 0.08652,0.10551 0.147251,0.0853 3.004526,-0.9986 6.263076,0.8908 7.264594,4.20991 0.0198,0.0664 0.08622,0.10532 0.1468,0.0855 l 1.389359,-0.4622 0.0058,-0.002 c 0.06088,-0.0205 0.09536,-0.0924 0.07496,-0.15916 z"
       id="path3026"
       inkscape:export-filename="C:\Users\cpcrasher\Documents\Nervous_Mosgap\documentation\graphic resources\Logo_Draft\V2\Schriftzug6.png"
       inkscape:export-xdpi="1011.71"
       inkscape:export-ydpi="1011.71" />
    <path
       style="fill:#f15f18;fill-opacity:1"
       inkscape:connector-curvature="0"
       d="m 30.15656,51.907719 -0.0177,-0.0357 c -1.724642,-6.4076 -6.653034,-8.31154 -12.596125,-7.14187 -0.06076,0.0202 -0.09371,0.0913 -0.07316,0.1602 l 0.440872,1.46017 c 0.02055,0.0681 0.08652,0.1055 0.14725,0.0853 5.126636,-1.52284 9.478732,1.61012 10.378661,6.01778 0.0198,0.0664 0.08622,0.10533 0.1468,0.0855 l 1.492595,-0.47029 0.0058,-0.002 c 0.06088,-0.0205 0.09536,-0.0924 0.07496,-0.15916 z"
       id="path3026-6"
       sodipodi:nodetypes="cccccccccccc"
       inkscape:export-filename="C:\Users\cpcrasher\Documents\Nervous_Mosgap\documentation\graphic resources\Logo_Draft\V2\Schriftzug6.png"
       inkscape:export-xdpi="1011.71"
       inkscape:export-ydpi="1011.71" />
    <path
       d="m 113.32938,52.281389 4.84154,0 c -0.11224,0.49571 -0.22635,1.07169 -0.33859,1.5674 2.2,-1.34999 5.9027,-3.0774 7.3927,0.0526 0.86472,1.7833 -1.06,8.49 -1.77,12.78 -1.55,0.01 -3.1,0 -4.65,0 0.62,-3.4 1.62,-6.56 1.85,-10.02 -1.13,-1.37 -2.81,-0.08 -3.51,1.05 -1.03,2.96 -1.34,5.91 -1.99,8.97 -1.54,0 -3.15301,0 -4.69301,0 1,-4.85 2.08736,-9.51 2.86736,-14.4 z"
       id="path6-8"
       inkscape:connector-curvature="0"
       style="fill:#f15f18"
       sodipodi:nodetypes="ccccccccccc"
       inkscape:export-filename="C:\Users\cpcrasher\Documents\Nervous_Mosgap\documentation\graphic resources\Logo_Draft\V2\Schriftzug6.png"
       inkscape:export-xdpi="1011.71"
       inkscape:export-ydpi="1011.71" />
    <path
       style="fill:#f15f18;fill-opacity:1"
       d="m 135.325,52.200385 c -0.59218,0.04254 -1.1625,0.18356 -1.7,0.384036 -5.01,1.514707 -8.035,8.309653 -4.575,12.596374 2.59,2.979916 6.84,1.753978 10.1,0.793674 -0.51,-0.970206 -1.015,-1.948466 -1.525,-2.918672 -2.35,0.782105 -4.82,0.484844 -6.15,-1.792167 2.78,-0.188135 5.57,-0.218819 8.35,-0.179217 0.43,-2.207711 1.35,-4.701524 0.05,-6.810235 -0.9075,-1.588958 -2.77344,-2.201411 -4.55,-2.073793 z m 1.025,3.021082 c 0.17,0.931926 0.34,1.83313 0.5,2.765057 -1.63,-0.01024 -3.255,-0.01024 -4.875,-0.0512 1.15,-1.382529 2.535,-2.539757 4.375,-2.713853 z"
       id="path8-1"
       inkscape:connector-curvature="0"
       inkscape:export-filename="C:\Users\cpcrasher\Documents\Nervous_Mosgap\documentation\graphic resources\Logo_Draft\V2\Schriftzug6.png"
       inkscape:export-xdpi="1011.71"
       inkscape:export-ydpi="1011.71" />
    <path
       style="fill:#f15f18;fill-opacity:1"
       inkscape:connector-curvature="0"
       d="m 124.91517,53.987479 c -0.39547,-1.16546 -1.36625,-1.83871 -2.56503,-1.46663 -0.0616,0.0188 -0.0963,0.0312 -0.0576,0.15776 l 0.64698,2.07524 1.85837,-0.57101 c 0.19403,-0.0647 0.1387,-0.12429 0.11725,-0.19536 z"
       id="path3022-1"
       inkscape:export-filename="C:\Users\cpcrasher\Documents\Nervous_Mosgap\documentation\graphic resources\Logo_Draft\V2\Schriftzug6.png"
       inkscape:export-xdpi="1011.71"
       inkscape:export-ydpi="1011.71" />
    <path
       d="m 42.255032,52.13209 c 1.25,0 2.909778,0.01016 4.149778,0.02031 -0.139385,0.710993 -0.2703,1.346029 -0.418112,2.100009 1.321256,-2.160039 3.33467,-1.873314 5.464971,-2.071661 -0.191217,0.975382 -0.683528,3.48662 -0.771019,3.9329 -1.549973,-0.06603 -4.185618,-0.213298 -5.275618,2.620519 -0.9,2.803345 -1.311519,5.230879 -1.881519,8.11548 -1.56,0.03048 -2.638481,0.07111 -4.188481,0.111728 0.97,-4.946482 1.81,-9.913278 2.92,-14.829289 z"
       id="path4070"
       inkscape:connector-curvature="0"
       style="fill:#f15f18"
       sodipodi:nodetypes="ccccccccc"
       inkscape:export-xdpi="1011.71"
       inkscape:export-ydpi="1011.71"
       inkscape:export-filename="C:\Users\cpcrasher\Documents\Nervous_Mosgap\documentation\graphic resources\Logo_Draft\V2\Schriftzug6.png" />
    <path
       d="m 145.56478,44.363461 4.90333,0.02 c -0.13939,0.7 -1.23015,6.420432 -1.4818,7.749802 l 5.25927,0.05 -0.71241,3.79871 c -2.22815,0 -5.22376,0.10719 -5.71126,1.24467 -0.25742,1.003072 -0.60697,2.796153 -0.87082,4.11503 -0.17923,1.917771 1.09819,2.046737 5.28028,1.780718 l -1.07029,3.756248 c -5.42628,0.06669 -9.00538,-0.273616 -9.55562,-2.730057 0.16732,-4.21374 2.37101,-12.228364 3.95958,-19.785131 z"
       id="path4070-9"
       inkscape:connector-curvature="0"
       style="fill:#f15f18"
       sodipodi:nodetypes="cccccccccccc"
       inkscape:export-xdpi="1011.71"
       inkscape:export-ydpi="1011.71"
       inkscape:export-filename="C:\Users\cpcrasher\Documents\Nervous_Mosgap\documentation\graphic resources\Logo_Draft\V2\Schriftzug6.png" />
    <path
       inkscape:export-ydpi="1011.71"
       inkscape:export-xdpi="1011.71"
       inkscape:export-filename="C:\Users\cpcrasher\Documents\Nervous_Mosgap\documentation\graphic resources\Logo_Draft\V2\Schriftzug6.png"
       id="path3076"
       d="m 145.64943,41.216001 c -2.85027,0.88109 -4.46735,3.68949 -3.60668,6.27808 0.02,0.061 0.0914,0.0942 0.15889,0.0733 l 1.4927,-0.44992 c 0.0671,-0.0202 0.10515,-0.0859 0.0851,-0.14695 -0.57637,-1.73378 0.51344,-3.61594 2.43027,-4.19408 0.0667,-0.0197 0.10533,-0.0862 0.0851,-0.14696 l -0.44899,-1.35127 -0.002,-0.005 c -0.0205,-0.0616 -0.0922,-0.0949 -0.15869,-0.0744 l -0.0357,0.017 z"
       inkscape:connector-curvature="0"
       style="fill:#f15f18;fill-opacity:1" />
    <path
       inkscape:export-ydpi="1011.71"
       inkscape:export-xdpi="1011.71"
       inkscape:export-filename="C:\Users\cpcrasher\Documents\Nervous_Mosgap\documentation\graphic resources\Logo_Draft\V2\Schriftzug6.png"
       id="path3078"
       d="m 144.90699,38.856521 -0.0357,0.0177 c -4.27836,1.31151 -6.70569,5.52104 -5.41672,9.40107 0.0202,0.0607 0.0913,0.0937 0.16021,0.0732 l 1.53479,-0.46312 c 0.0681,-0.0206 0.10551,-0.0865 0.0853,-0.14725 -0.9986,-3.00452 0.8908,-6.26307 4.20991,-7.26459 0.0664,-0.0198 0.10532,-0.0862 0.0855,-0.1468 l -0.4622,-1.38936 -0.002,-0.006 c -0.0205,-0.0609 -0.0924,-0.0954 -0.15916,-0.075 z"
       inkscape:connector-curvature="0"
       style="fill:#f15f18;fill-opacity:1" />
    <path
       inkscape:export-ydpi="1011.71"
       inkscape:export-xdpi="1011.71"
       inkscape:export-filename="C:\Users\cpcrasher\Documents\Nervous_Mosgap\documentation\graphic resources\Logo_Draft\V2\Schriftzug6.png"
       sodipodi:nodetypes="cccccccccccc"
       id="path3080"
       d="m 144.14104,36.436161 -0.0357,0.0177 c -6.4076,1.72464 -8.31154,6.65303 -7.14187,12.59612 0.0202,0.0608 0.0913,0.0937 0.1602,0.0732 l 1.46017,-0.44087 c 0.0681,-0.0206 0.1055,-0.0865 0.0853,-0.14725 -1.52284,-5.12663 1.61012,-9.47873 6.01778,-10.37866 0.0664,-0.0198 0.10533,-0.0862 0.0855,-0.1468 l -0.47029,-1.49259 -0.002,-0.006 c -0.0205,-0.0609 -0.0924,-0.0954 -0.15916,-0.075 z"
       inkscape:connector-curvature="0"
       style="fill:#f15f18;fill-opacity:1" />
  </g>
</svg>
