<?xml version="1.0" encoding="UTF-8" standalone="no"?>
<svg
   xmlns:dc="http://purl.org/dc/elements/1.1/"
   xmlns:cc="http://creativecommons.org/ns#"
   xmlns:rdf="http://www.w3.org/1999/02/22-rdf-syntax-ns#"
   xmlns:svg="http://www.w3.org/2000/svg"
   xmlns="http://www.w3.org/2000/svg"
   xmlns:sodipodi="http://sodipodi.sourceforge.net/DTD/sodipodi-0.dtd"
   xmlns:inkscape="http://www.inkscape.org/namespaces/inkscape"
   width="182.41695"
   height="38.442127"
   viewBox="0 0 145.93356 30.753702"
   version="1.1"
   id="svg2"
   inkscape:version="0.48.5 r10040"
   sodipodi:docname="Schriftzug4.svg"
   inkscape:export-filename="C:\Users\cpcrasher\Documents\Nervous_Mosgap\documentation\graphic resources\Logo_Draft\V2\Schriftzug4.png"
   inkscape:export-xdpi="505.56"
   inkscape:export-ydpi="505.56">
  <metadata
     id="metadata26">
    <rdf:RDF>
      <cc:Work
         rdf:about="">
        <dc:format>image/svg+xml</dc:format>
        <dc:type
           rdf:resource="http://purl.org/dc/dcmitype/StillImage" />
        <dc:title></dc:title>
      </cc:Work>
    </rdf:RDF>
  </metadata>
  <defs
     id="defs24" />
  <sodipodi:namedview
     pagecolor="#ffffff"
     bordercolor="#666666"
     borderopacity="1"
     objecttolerance="10"
     gridtolerance="10"
     guidetolerance="10"
     inkscape:pageopacity="0"
     inkscape:pageshadow="2"
     inkscape:window-width="1474"
     inkscape:window-height="841"
     id="namedview22"
     showgrid="false"
     inkscape:snap-midpoints="false"
     inkscape:zoom="4"
     inkscape:cx="143.24263"
     inkscape:cy="26.083635"
     inkscape:window-x="-8"
     inkscape:window-y="-8"
     inkscape:window-maximized="1"
     inkscape:current-layer="svg2"
     inkscape:object-nodes="true"
     showguides="false"
     inkscape:snap-nodes="false"
     fit-margin-top="0"
     fit-margin-left="0"
     fit-margin-right="0"
     fit-margin-bottom="0">
    <inkscape:grid
       type="xygrid"
       id="grid3003"
       empspacing="5"
       visible="true"
       enabled="true"
       snapvisiblegridlinesonly="true"
       originx="174.10445px"
       originy="-76.124449px" />
    <sodipodi:guide
       position="363.91694,9.6880515"
       orientation="-28.349802,5.6450719"
       id="guide3019" />
    <sodipodi:guide
       position="198.59851,9.8755515"
       orientation="-13.791952,-4.2415163"
       id="guide4005" />
    <sodipodi:guide
       position="204.72202,3.5936015"
       orientation="-2.865131,9.016735"
       id="guide4009" />
    <sodipodi:guide
       position="368.66694,9.7193015"
       orientation="-1.381068,0"
       id="guide5020" />
  </sodipodi:namedview>
  <g
     style="fill:#f15f18;fill-opacity:1"
     id="g3028"
     transform="matrix(0.55355107,0.04798827,-0.04798827,0.55355107,159.29178,14.655742)" />
  <g
     style="fill:#f15f18;fill-opacity:1"
     id="g3030"
     transform="matrix(0.55355107,0.04798827,-0.04798827,0.55355107,159.29178,14.655742)" />
  <g
     style="fill:#f15f18;fill-opacity:1"
     id="g3032"
     transform="matrix(0.55355107,0.04798827,-0.04798827,0.55355107,159.29178,14.655742)" />
  <g
     style="fill:#f15f18;fill-opacity:1"
     id="g3034"
     transform="matrix(0.55355107,0.04798827,-0.04798827,0.55355107,159.29178,14.655742)" />
  <g
     style="fill:#f15f18;fill-opacity:1"
     id="g3036"
     transform="matrix(0.55355107,0.04798827,-0.04798827,0.55355107,159.29178,14.655742)" />
  <g
     style="fill:#f15f18;fill-opacity:1"
     id="g3038"
     transform="matrix(0.55355107,0.04798827,-0.04798827,0.55355107,159.29178,14.655742)" />
  <g
     style="fill:#f15f18;fill-opacity:1"
     id="g3040"
     transform="matrix(0.55355107,0.04798827,-0.04798827,0.55355107,159.29178,14.655742)" />
  <g
     style="fill:#f15f18;fill-opacity:1"
     id="g3042"
     transform="matrix(0.55355107,0.04798827,-0.04798827,0.55355107,159.29178,14.655742)" />
  <g
     style="fill:#f15f18;fill-opacity:1"
     id="g3044"
     transform="matrix(0.55355107,0.04798827,-0.04798827,0.55355107,159.29178,14.655742)" />
  <g
     style="fill:#f15f18;fill-opacity:1"
     id="g3046"
     transform="matrix(0.55355107,0.04798827,-0.04798827,0.55355107,159.29178,14.655742)" />
  <g
     style="fill:#f15f18;fill-opacity:1"
     id="g3048"
     transform="matrix(0.55355107,0.04798827,-0.04798827,0.55355107,159.29178,14.655742)" />
  <g
     style="fill:#f15f18;fill-opacity:1"
     id="g3050"
     transform="matrix(0.55355107,0.04798827,-0.04798827,0.55355107,159.29178,14.655742)" />
  <g
     style="fill:#f15f18;fill-opacity:1"
     id="g3052"
     transform="matrix(0.55355107,0.04798827,-0.04798827,0.55355107,159.29178,14.655742)" />
  <g
     style="fill:#f15f18;fill-opacity:1"
     id="g3054"
     transform="matrix(0.55355107,0.04798827,-0.04798827,0.55355107,159.29178,14.655742)" />
  <g
     style="fill:#f15f18;fill-opacity:1"
     id="g3056"
     transform="matrix(0.55355107,0.04798827,-0.04798827,0.55355107,159.29178,14.655742)" />
  <path
     d="m 2.86736,15.851251 4.84154,0 c -0.11224,0.49571 -0.22635,1.0717 -0.33859,1.56741 2.2,-1.34999 5.9027,-3.077411 7.3927,0.0526 0.86471,1.78329 -1.06,8.49 -1.77,12.78 -1.55,0.01 -3.1,0 -4.65,0 0.62,-3.4 1.62,-6.56 1.85,-10.02 -1.13,-1.37 -2.81,-0.08 -3.51,1.05 -1.03,2.96 -1.34,5.91 -1.99,8.97 -1.54,0 -3.15301,0 -4.69301,0 1,-4.85 2.08736,-9.51 2.86736,-14.4 z"
     id="path6"
     inkscape:connector-curvature="0"
     style="fill:#f15f18;display:inline"
     sodipodi:nodetypes="ccccccccccc"
     inkscape:export-filename="C:\Users\patrick\Documents\Nervous_Mosgap\documentation\graphic resources\Logo_Draft\V2\path4070-95.png"
     inkscape:export-xdpi="1011.71"
     inkscape:export-ydpi="1011.71" />
  <path
     style="fill:#f15f18;fill-opacity:1;display:inline"
     d="m 24.86298,15.776254 c -0.59219,0.04252 -1.1625,0.182167 -1.7,0.38256 -5.01,1.514081 -8.035,8.31402 -4.575,12.598971 2.59,2.978684 6.84,1.750532 10.1,0.790624 -0.51,-0.969804 -1.015,-1.937651 -1.525,-2.907455 -2.35,0.781781 -4.82,0.465288 -6.15,-1.810783 2.78,-0.188024 5.57,-0.218111 8.35,-0.178528 0.43,-2.2068 1.35,-4.676223 0.05,-6.784062 -0.9075,-1.588302 -2.77344,-2.218892 -4.55,-2.091327 z m 1.025,3.060478 c 0.17,0.928346 0.34,1.826087 0.5,2.754432 -1.63,-0.0102 -3.255,-0.0102 -4.875,-0.05101 1.15,-1.377216 2.535,-2.529996 4.375,-2.703424 z"
     id="path8"
     inkscape:connector-curvature="0" />
  <path
     d="m 46.3038,15.733524 4.456926,0.002 -1.835736,8.801329 5.585734,-8.79116 4.656396,-0.07119 -9.389998,14.745107 c -1.8,0.0305 -4.596402,0.06101 -6.396402,0.11186 z"
     id="path10"
     inkscape:connector-curvature="0"
     style="fill:#f15f18;display:inline"
     sodipodi:nodetypes="cccccccc"
     inkscape:export-filename="C:\Users\patrick\Documents\Nervous_Mosgap\documentation\graphic resources\Logo_Draft\V2\path4070-95.png"
     inkscape:export-xdpi="1011.71"
     inkscape:export-ydpi="1011.71" />
  <path
     style="fill:#f15f18;display:inline"
     d="m 66.512978,15.708237 c -0.765571,-0.02816 -1.565626,0.09258 -2.325,0.422512 -5.24,1.471336 -8.095,9.121287 -4.175,13.197285 4.85,3.936817 12.035,-1.197946 11.975,-6.834752 0.804376,-3.505606 -2.157526,-6.663031 -5.475,-6.785045 z m -0.7,3.703193 c 1.762578,-8e-4 1.65125,2.545013 1.45,4.075998 -0.23,1.849111 -1.42,3.638573 -3.45,3.728046 -1.72,-2.266652 -1.125,-5.930079 1.125,-7.630068 0.333749,-0.114327 0.623202,-0.17386 0.875,-0.173976 z"
     id="path12"
     inkscape:connector-curvature="0" />
  <path
     d="m 83.863009,15.712317 c 1.56,0.01011 3.13,0.01011 4.69,0.03034 -0.92,4.905266 -1.93,9.800418 -2.84,14.715799 -1.26,-0.03035 -3.12104,-0.05057 -4.38104,-0.08092 l 0.22104,-1.618232 c -1.969999,2.012676 -6.679999,3.266805 -7.609999,-0.364102 -0.280002,-4.288316 1.14,-8.455263 1.85,-12.642438 1.55,0 3.09,0.01011 4.639999,0.02023 -0.759999,3.701707 -1.519999,7.413525 -1.959999,11.175916 -0.168859,0.949557 3.293879,0.162489 3.599999,-1.375499 0.54,-3.297146 1.16,-6.574068 1.79,-9.861101 z"
     id="path14"
     inkscape:connector-curvature="0"
     style="fill:#f15f18;display:inline"
     sodipodi:nodetypes="ccccccccccc"
     inkscape:export-filename="C:\Users\patrick\Documents\Nervous_Mosgap\documentation\graphic resources\Logo_Draft\V2\path4070-95.png"
     inkscape:export-xdpi="1011.71"
     inkscape:export-ydpi="1011.71" />
  <path
     d="m 91.013009,18.641251 c 2.01,-4.020001 7.46,-3.38 10.460001,-0.89 -0.8,0.74 -1.600001,1.46 -2.400001,2.19 -1.57,-0.38 -2.751352,-1.524379 -3.8036,-0.195025 -0.614552,0.776378 2.5136,2.475025 4.1536,4.085025 1.860001,2.74 -0.63,6.31 -3.62,6.68 -2.8,0.87 -5.32,-0.75 -7.34,-2.5 0.64,-0.51 1.92,-2.085685 2.56,-2.595685 1.63,0.96 3.236416,2.7746 4.3186,0.77 0.841992,-1.55431 -6.2486,-3.574315 -4.3286,-7.544315 z"
     id="path16"
     inkscape:connector-curvature="0"
     style="fill:#f15f18;display:inline"
     sodipodi:nodetypes="cccscccccc"
     inkscape:export-filename="C:\Users\patrick\Documents\Nervous_Mosgap\documentation\graphic resources\Logo_Draft\V2\path4070-95.png"
     inkscape:export-xdpi="1011.71"
     inkscape:export-ydpi="1011.71" />
  <path
     style="fill:#f15f18;fill-opacity:1;display:inline"
     inkscape:connector-curvature="0"
     d="m 14.45315,17.557341 c -0.39547,-1.16545 -1.36625,-1.8387 -2.56503,-1.46662 -0.0616,0.0188 -0.0963,0.0312 -0.0576,0.15775 l 0.64698,2.07525 1.85837,-0.57102 c 0.19403,-0.0647 0.13869,-0.12428 0.11725,-0.19536 z"
     id="path3022"
     inkscape:export-filename="C:\Users\patrick\Documents\Nervous_Mosgap\documentation\graphic resources\Logo_Draft\V2\path4070-95.png"
     inkscape:export-xdpi="1011.71"
     inkscape:export-ydpi="1011.71" />
  <path
     style="fill:#f15f18;fill-opacity:1;display:inline"
     inkscape:connector-curvature="0"
     d="m 17.06469,16.985981 c -0.88108,-2.850271 -3.68948,-4.467351 -6.27807,-3.60668 -0.061,0.02 -0.0942,0.0914 -0.0733,0.158889 l 0.44992,1.492701 c 0.0203,0.0671 0.0859,0.10515 0.14695,0.0851 1.73377,-0.57637 3.61593,0.51344 4.19408,2.43027 0.0197,0.0667 0.0862,0.10533 0.14695,0.0851 l 1.35127,-0.44899 0.005,-0.002 c 0.0616,-0.0205 0.0949,-0.0922 0.0744,-0.15869 l -0.017,-0.0357 z"
     id="path3024"
     inkscape:export-filename="C:\Users\patrick\Documents\Nervous_Mosgap\documentation\graphic resources\Logo_Draft\V2\path4070-95.png"
     inkscape:export-xdpi="1011.71"
     inkscape:export-ydpi="1011.71" />
  <path
     style="fill:#f15f18;fill-opacity:1;display:inline"
     inkscape:connector-curvature="0"
     d="m 19.42418,16.243541 -0.0177,-0.0357 c -1.31151,-4.27836 -5.52104,-6.7056906 -9.40107,-5.41672 -0.0607,0.0202 -0.0937,0.0913 -0.0732,0.160209 l 0.46311,1.534791 c 0.0206,0.0681 0.0865,0.105509 0.14725,0.0853 3.00453,-0.9986 6.26308,0.8908 7.2646,4.20991 0.0198,0.0664 0.0862,0.10532 0.1468,0.0855 l 1.38936,-0.4622 0.006,-0.002 c 0.0609,-0.0205 0.0954,-0.0924 0.075,-0.15916 z"
     id="path3026"
     inkscape:export-filename="C:\Users\patrick\Documents\Nervous_Mosgap\documentation\graphic resources\Logo_Draft\V2\path4070-95.png"
     inkscape:export-xdpi="1011.71"
     inkscape:export-ydpi="1011.71" />
  <path
     style="fill:#f15f18;fill-opacity:1;display:inline"
     inkscape:connector-curvature="0"
     d="m 21.84454,15.477591 -0.0177,-0.0357 C 20.10219,9.0342944 15.1738,7.1303547 9.23071,8.3000248 c -0.0608,0.0202 -0.0937,0.0913 -0.0732,0.1602 l 0.44087,1.4601696 c 0.0205,0.068104 0.0865,0.1054996 0.14725,0.0853 5.12664,-1.5228392 9.47873,1.61012 10.37866,6.017781 0.0198,0.0664 0.0862,0.10533 0.1468,0.0855 l 1.4926,-0.47029 0.006,-0.002 c 0.0609,-0.0205 0.0954,-0.0924 0.075,-0.15916 z"
     id="path3026-6"
     sodipodi:nodetypes="cccccccccccc"
     inkscape:export-filename="C:\Users\patrick\Documents\Nervous_Mosgap\documentation\graphic resources\Logo_Draft\V2\path4070-95.png"
     inkscape:export-xdpi="1011.71"
     inkscape:export-ydpi="1011.71" />
  <path
     d="m 105.01736,15.851261 4.84154,0 c -0.11224,0.49571 -0.22635,1.07169 -0.33859,1.5674 2.2,-1.34999 5.9027,-3.0774 7.3927,0.0526 0.86472,1.7833 -1.06,8.49 -1.77,12.78 -1.55,0.01 -3.1,0 -4.65,0 0.62,-3.4 1.62,-6.56 1.85,-10.02 -1.13,-1.37 -2.81,-0.08 -3.51,1.05 -1.03,2.96 -1.34,5.91 -1.99,8.97 -1.54,0 -3.15301,0 -4.69301,0 1,-4.85 2.08736,-9.51 2.86736,-14.4 z"
     id="path6-8"
     inkscape:connector-curvature="0"
     style="fill:#f15f18;display:inline"
     sodipodi:nodetypes="ccccccccccc"
     inkscape:export-filename="C:\Users\patrick\Documents\Nervous_Mosgap\documentation\graphic resources\Logo_Draft\V2\path4070-95.png"
     inkscape:export-xdpi="1011.71"
     inkscape:export-ydpi="1011.71" />
  <path
     style="fill:#f15f18;fill-opacity:1;display:inline"
     d="m 127.01298,15.770257 c -0.59218,0.04254 -1.1625,0.18356 -1.7,0.384036 -5.01,1.514707 -8.035,8.309653 -4.575,12.596374 2.59,2.979916 6.84,1.753978 10.1,0.793674 -0.51,-0.970206 -1.015,-1.948466 -1.525,-2.918672 -2.35,0.782105 -4.82,0.484844 -6.15,-1.792167 2.78,-0.188135 5.57,-0.218819 8.35,-0.179217 0.43,-2.207711 1.35,-4.701524 0.05,-6.810235 -0.9075,-1.588958 -2.77344,-2.201411 -4.55,-2.073793 z m 1.025,3.021082 c 0.17,0.931926 0.34,1.83313 0.5,2.765057 -1.63,-0.01024 -3.255,-0.01024 -4.875,-0.0512 1.15,-1.382529 2.535,-2.539757 4.375,-2.713853 z"
     id="path8-1"
     inkscape:connector-curvature="0" />
  <path
     style="fill:#f15f18;fill-opacity:1;display:inline"
     inkscape:connector-curvature="0"
     d="m 116.60315,17.557351 c -0.39547,-1.16546 -1.36625,-1.83871 -2.56503,-1.46663 -0.0616,0.0188 -0.0963,0.0312 -0.0576,0.15776 l 0.64698,2.07524 1.85837,-0.57101 c 0.19403,-0.0647 0.1387,-0.12429 0.11725,-0.19536 z"
     id="path3022-1"
     inkscape:export-filename="C:\Users\patrick\Documents\Nervous_Mosgap\documentation\graphic resources\Logo_Draft\V2\path4070-95.png"
     inkscape:export-xdpi="1011.71"
     inkscape:export-ydpi="1011.71" />
  <path
     d="m 33.94301,15.701962 c 1.25,0 2.90978,0.01016 4.14978,0.02031 -0.13939,0.710993 -0.2703,1.346029 -0.41812,2.100009 1.32126,-2.16004 3.33467,-1.873315 5.46498,-2.071661 -0.19122,0.975381 -0.68353,3.48662 -0.77102,3.9329 -1.54998,-0.06603 -4.18562,-0.213299 -5.27562,2.620518 -0.9,2.803346 -1.31152,5.23088 -1.88152,8.11548 -1.56,0.03048 -2.63848,0.07111 -4.18848,0.111728 0.97,-4.946481 1.81,-9.913277 2.92,-14.829289 z"
     id="path4070"
     inkscape:connector-curvature="0"
     style="fill:#f15f18;display:inline"
     sodipodi:nodetypes="ccccccccc"
     inkscape:export-xdpi="1011.71"
     inkscape:export-ydpi="1011.71" />
  <path
     d="m 137.25276,7.9333327 4.90333,0.02 c -0.13939,0.7000001 -1.23015,6.4204323 -1.4818,7.7498023 l 5.25927,0.05 -0.71241,3.79871 c -2.22815,0 -5.22376,0.10719 -5.71126,1.24467 -0.25742,1.003072 -0.60697,2.796153 -0.87082,4.11503 -0.17923,1.917771 1.09819,2.046737 5.28028,1.780718 l -1.07029,3.756248 c -5.42628,0.06669 -9.00538,-0.273616 -9.55562,-2.730057 0.16732,-4.21374 2.37101,-12.228364 3.95958,-19.7851313 z"
     id="path4070-9"
     inkscape:connector-curvature="0"
     style="fill:#f15f18;display:inline"
     sodipodi:nodetypes="cccccccccccc"
     inkscape:export-xdpi="1011.71"
     inkscape:export-ydpi="1011.71" />
  <path
     inkscape:export-ydpi="1011.71"
     inkscape:export-xdpi="1011.71"
     inkscape:export-filename="C:\Users\patrick\Documents\Nervous_Mosgap\documentation\graphic resources\Logo_Draft\V2\path4070-95.png"
     id="path3076"
     d="m 137.33741,4.7858726 c -2.85027,0.88109 -4.46735,3.6894898 -3.60668,6.2780804 0.02,0.061 0.0914,0.0942 0.15889,0.0733 l 1.4927,-0.44992 c 0.0671,-0.0202 0.10515,-0.0859 0.0851,-0.146951 -0.57637,-1.7337796 0.51344,-3.6159393 2.43027,-4.1940793 0.0667,-0.0197 0.10533,-0.0862 0.0851,-0.1469601 l -0.44899,-1.35127 -0.002,-0.005 c -0.0205,-0.0616 -0.0922,-0.0949 -0.15869,-0.0744 l -0.0357,0.017 z"
     inkscape:connector-curvature="0"
     style="fill:#f15f18;fill-opacity:1;display:inline" />
  <path
     inkscape:export-ydpi="1011.71"
     inkscape:export-xdpi="1011.71"
     inkscape:export-filename="C:\Users\patrick\Documents\Nervous_Mosgap\documentation\graphic resources\Logo_Draft\V2\path4070-95.png"
     id="path3078"
     d="m 136.59497,2.4263926 -0.0357,0.0177 c -4.27836,1.31151 -6.70569,5.5210401 -5.41672,9.4010694 0.0202,0.0607 0.0913,0.0937 0.16022,0.0732 l 1.53478,-0.46312 c 0.0681,-0.0206 0.10551,-0.0865 0.0853,-0.147249 -0.9986,-3.0045202 0.8908,-6.2630704 4.20992,-7.2645904 0.0664,-0.0198 0.10532,-0.0862 0.0855,-0.1468 l -0.4622,-1.38936 -0.002,-0.006 c -0.0205,-0.0609 -0.0924,-0.0954 -0.15916,-0.075 z"
     inkscape:connector-curvature="0"
     style="fill:#f15f18;fill-opacity:1;display:inline" />
  <path
     inkscape:export-ydpi="1011.71"
     inkscape:export-xdpi="1011.71"
     inkscape:export-filename="C:\Users\patrick\Documents\Nervous_Mosgap\documentation\graphic resources\Logo_Draft\V2\path4070-95.png"
     sodipodi:nodetypes="cccccccccccc"
     id="path3080"
     d="m 135.82902,0.00603249 -0.0357,0.0177 c -6.4076,1.72464011 -8.31155,6.65303021 -7.14187,12.59612051 0.0202,0.0608 0.0913,0.0937 0.1602,0.0732 l 1.46016,-0.440871 c 0.0681,-0.0206 0.10551,-0.0865 0.0853,-0.147249 -1.52284,-5.1266303 1.61012,-9.4787304 6.01777,-10.3786604 0.0664,-0.0198 0.10533,-0.0862 0.0855,-0.1468 l -0.4703,-1.49259011 -0.002,-0.006 c -0.0205,-0.0609 -0.0924,-0.0954 -0.15916,-0.075 z"
     inkscape:connector-curvature="0"
     style="fill:#f15f18;fill-opacity:1;display:inline" />
</svg>
