<?xml version="1.0" encoding="iso-8859-1"?>
<!-- Generator: Adobe Illustrator 16.0.0, SVG Export Plug-In . SVG Version: 6.00 Build 0)  -->
<!DOCTYPE svg PUBLIC "-//W3C//DTD SVG 1.1//EN" "http://www.w3.org/Graphics/SVG/1.1/DTD/svg11.dtd">
<svg version="1.1" id="Capa_1" xmlns="http://www.w3.org/2000/svg" xmlns:xlink="http://www.w3.org/1999/xlink" x="0px" y="0px"
	 width="31.6px" height="21.363px" viewBox="0 0 31.6 21.363" style="enable-background:new 0 0 31.6 21.363;" xml:space="preserve"
	>
<path d="M20.037,16.704c-2.46-2.283-5.832-2.553-8.529,0.048c-0.139,0.133-0.215,0.212,0.041,0.466l4.23,4.146l4.188-4.018
	C20.398,16.914,20.18,16.847,20.037,16.704z"/>
<path d="M26.204,11.621c-5.79-5.705-15.142-5.68-20.896,0.076c-0.136,0.135-0.136,0.356,0.001,0.491l3.002,3.004
	c0.135,0.135,0.354,0.135,0.49,0c3.854-3.855,10.129-3.857,13.985,0c0.133,0.135,0.355,0.135,0.49,0l3.004-3.004l0.01-0.012
	c0.137-0.137,0.137-0.359,0.002-0.492L26.204,11.621z"/>
<path d="M31.5,6.477l-0.09-0.062c-8.662-8.579-22.684-8.55-31.31,0.075c-0.135,0.135-0.135,0.355,0.003,0.494l3.088,3.088
	c0.137,0.137,0.356,0.135,0.491,0c6.679-6.68,17.546-6.677,24.224,0.001c0.133,0.134,0.355,0.135,0.49,0.001l3.088-3.09l0.013-0.013
	C31.632,6.835,31.635,6.611,31.5,6.477z"/>
<g>
</g>
<g>
</g>
<g>
</g>
<g>
</g>
<g>
</g>
<g>
</g>
<g>
</g>
<g>
</g>
<g>
</g>
<g>
</g>
<g>
</g>
<g>
</g>
<g>
</g>
<g>
</g>
<g>
</g>
</svg>
